<?xml version="1.0" encoding="utf-8" standalone="no"?>
<!DOCTYPE svg PUBLIC "-//W3C//DTD SVG 1.1//EN"
  "http://www.w3.org/Graphics/SVG/1.1/DTD/svg11.dtd">
<svg xmlns:xlink="http://www.w3.org/1999/xlink" width="528.867825pt" height="303.6368pt" viewBox="0 0 528.867825 303.6368" xmlns="http://www.w3.org/2000/svg" version="1.1">
 <metadata>
  <rdf:RDF xmlns:dc="http://purl.org/dc/elements/1.1/" xmlns:cc="http://creativecommons.org/ns#" xmlns:rdf="http://www.w3.org/1999/02/22-rdf-syntax-ns#">
   <cc:Work>
    <dc:type rdf:resource="http://purl.org/dc/dcmitype/StillImage"/>
    <dc:date>2026-09-23T16:31:03.213330</dc:date>
    <dc:format>image/svg+xml</dc:format>
    <dc:creator>
     <cc:Agent>
      <dc:title>Matplotlib v3.11.0, https://matplotlib.org/</dc:title>
     </cc:Agent>
    </dc:creator>
   </cc:Work>
  </rdf:RDF>
 </metadata>
 <defs>
  <style type="text/css">*{stroke-linejoin: round; stroke-linecap: butt}</style>
 </defs>
 <g id="figure_1">
  <g id="patch_1">
   <path d="M 0 303.6368 
L 528.867825 303.6368 
L 528.867825 0 
L 0 0 
z
" style="fill: #ffffff"/>
  </g>
  <g id="axes_1">
   <g id="patch_2">
    <path d="M 68.067825 282.56 
L 284.067825 282.56 
L 284.067825 66.56 
L 68.067825 66.56 
z
" style="fill: #ffffff"/>
   </g>
   <g id="line2d_1">
    <path d="M 68.067825 201.56 
L 284.067825 201.56 
" clip-path="url(#p3785563396)" style="fill: none; stroke: #9e9e9e; stroke-linecap: round"/>
   </g>
   <g id="matplotlib.axis_1">
    <g id="xtick_1">
     <g id="line2d_2"/>
    </g>
    <g id="xtick_2">
     <g id="line2d_3"/>
    </g>
    <g id="xtick_3">
     <g id="line2d_4"/>
    </g>
    <g id="xtick_4">
     <g id="line2d_5"/>
    </g>
   </g>
   <g id="matplotlib.axis_2">
    <g id="ytick_1">
     <g id="line2d_6"/>
     <g id="text_1">
      <!-- −0.6 -->
      <g style="fill: #262626" transform="translate(35.3332 290.96) scale(0.168 -0.168)">
       <defs>
        <path id="SourceSans3-Regular-873" d="M 218 1914 
L 218 2310 
L 2963 2310 
L 2963 1914 
L 218 1914 
z
" transform="scale(0.015625)"/>
        <path id="SourceSans3-Regular-535" d="M 1594 -77 
Q 979 -77 630 476 
Q 282 1030 282 2054 
Q 282 3085 630 3622 
Q 979 4160 1594 4160 
Q 2202 4160 2550 3622 
Q 2899 3085 2899 2054 
Q 2899 1030 2550 476 
Q 2202 -77 1594 -77 
z
M 1594 346 
Q 1952 346 2169 752 
Q 2387 1158 2387 2054 
Q 2387 2950 2169 3344 
Q 1952 3738 1594 3738 
Q 1235 3738 1014 3344 
Q 794 2950 794 2054 
Q 794 1158 1014 752 
Q 1235 346 1594 346 
z
" transform="scale(0.015625)"/>
        <path id="SourceSans3-Regular-56b" d="M 800 -77 
Q 640 -77 528 35 
Q 416 147 416 320 
Q 416 506 528 618 
Q 640 730 800 730 
Q 954 730 1066 618 
Q 1178 506 1178 320 
Q 1178 147 1066 35 
Q 954 -77 800 -77 
z
" transform="scale(0.015625)"/>
        <path id="SourceSans3-Regular-53b" d="M 1670 2099 
Q 1472 2099 1241 1971 
Q 1011 1843 819 1562 
Q 870 966 1097 652 
Q 1325 339 1715 339 
Q 2016 339 2221 585 
Q 2426 832 2426 1235 
Q 2426 1632 2237 1865 
Q 2048 2099 1670 2099 
z
M 1715 -77 
Q 1318 -77 998 140 
Q 678 358 492 796 
Q 307 1235 307 1888 
Q 307 2707 528 3206 
Q 749 3706 1104 3933 
Q 1459 4160 1862 4160 
Q 2195 4160 2435 4035 
Q 2675 3910 2848 3725 
L 2554 3398 
Q 2432 3546 2253 3632 
Q 2074 3718 1882 3718 
Q 1594 3718 1357 3555 
Q 1120 3392 969 3011 
Q 819 2630 806 1984 
Q 998 2221 1254 2358 
Q 1510 2496 1760 2496 
Q 2291 2496 2608 2179 
Q 2925 1862 2925 1235 
Q 2925 845 2758 550 
Q 2592 256 2320 89 
Q 2048 -77 1715 -77 
z
" transform="scale(0.015625)"/>
       </defs>
       <use xlink:href="#SourceSans3-Regular-873"/>
       <use xlink:href="#SourceSans3-Regular-535" transform="translate(49.703125 0)"/>
       <use xlink:href="#SourceSans3-Regular-56b" transform="translate(99.40625 0)"/>
       <use xlink:href="#SourceSans3-Regular-53b" transform="translate(124.3125 0)"/>
      </g>
     </g>
    </g>
    <g id="ytick_2">
     <g id="line2d_7"/>
     <g id="text_2">
      <!-- −0.4 -->
      <g style="fill: #262626" transform="translate(35.3332 263.96) scale(0.168 -0.168)">
       <defs>
        <path id="SourceSans3-Regular-539" d="M 666 1549 
L 1946 1549 
L 1946 2733 
Q 1946 2899 1958 3129 
Q 1971 3360 1978 3520 
L 1952 3520 
Q 1875 3373 1792 3232 
Q 1709 3091 1619 2944 
L 666 1549 
z
M 1946 0 
L 1946 1126 
L 109 1126 
L 109 1472 
L 1856 4083 
L 2445 4083 
L 2445 1549 
L 3002 1549 
L 3002 1126 
L 2445 1126 
L 2445 0 
L 1946 0 
z
" transform="scale(0.015625)"/>
       </defs>
       <use xlink:href="#SourceSans3-Regular-873"/>
       <use xlink:href="#SourceSans3-Regular-535" transform="translate(49.703125 0)"/>
       <use xlink:href="#SourceSans3-Regular-56b" transform="translate(99.40625 0)"/>
       <use xlink:href="#SourceSans3-Regular-539" transform="translate(124.3125 0)"/>
      </g>
     </g>
    </g>
    <g id="ytick_3">
     <g id="line2d_8"/>
     <g id="text_3">
      <!-- −0.2 -->
      <g style="fill: #262626" transform="translate(35.3332 236.96) scale(0.168 -0.168)">
       <defs>
        <path id="SourceSans3-Regular-537" d="M 256 0 
L 256 320 
Q 870 922 1299 1386 
Q 1728 1850 1952 2227 
Q 2176 2605 2176 2931 
Q 2176 3283 1984 3507 
Q 1792 3731 1402 3731 
Q 1146 3731 928 3587 
Q 710 3443 531 3238 
L 237 3526 
Q 493 3814 784 3987 
Q 1075 4160 1466 4160 
Q 2035 4160 2361 3830 
Q 2688 3501 2688 2963 
Q 2688 2566 2467 2176 
Q 2246 1786 1862 1357 
Q 1478 928 979 416 
Q 1146 429 1325 441 
Q 1504 454 1664 454 
L 2893 454 
L 2893 0 
L 256 0 
z
" transform="scale(0.015625)"/>
       </defs>
       <use xlink:href="#SourceSans3-Regular-873"/>
       <use xlink:href="#SourceSans3-Regular-535" transform="translate(49.703125 0)"/>
       <use xlink:href="#SourceSans3-Regular-56b" transform="translate(99.40625 0)"/>
       <use xlink:href="#SourceSans3-Regular-537" transform="translate(124.3125 0)"/>
      </g>
     </g>
    </g>
    <g id="ytick_4">
     <g id="line2d_9"/>
     <g id="text_4">
      <!-- 0.0 -->
      <g style="fill: #262626" transform="translate(43.683325 209.96) scale(0.168 -0.168)">
       <use xlink:href="#SourceSans3-Regular-535"/>
       <use xlink:href="#SourceSans3-Regular-56b" transform="translate(49.703125 0)"/>
       <use xlink:href="#SourceSans3-Regular-535" transform="translate(74.609375 0)"/>
      </g>
     </g>
    </g>
    <g id="ytick_5">
     <g id="line2d_10"/>
     <g id="text_5">
      <!-- 0.2 -->
      <g style="fill: #262626" transform="translate(43.683325 182.96) scale(0.168 -0.168)">
       <use xlink:href="#SourceSans3-Regular-535"/>
       <use xlink:href="#SourceSans3-Regular-56b" transform="translate(49.703125 0)"/>
       <use xlink:href="#SourceSans3-Regular-537" transform="translate(74.609375 0)"/>
      </g>
     </g>
    </g>
    <g id="ytick_6">
     <g id="line2d_11"/>
     <g id="text_6">
      <!-- 0.4 -->
      <g style="fill: #262626" transform="translate(43.683325 155.96) scale(0.168 -0.168)">
       <use xlink:href="#SourceSans3-Regular-535"/>
       <use xlink:href="#SourceSans3-Regular-56b" transform="translate(49.703125 0)"/>
       <use xlink:href="#SourceSans3-Regular-539" transform="translate(74.609375 0)"/>
      </g>
     </g>
    </g>
    <g id="ytick_7">
     <g id="line2d_12"/>
     <g id="text_7">
      <!-- 0.6 -->
      <g style="fill: #262626" transform="translate(43.683325 128.96) scale(0.168 -0.168)">
       <use xlink:href="#SourceSans3-Regular-535"/>
       <use xlink:href="#SourceSans3-Regular-56b" transform="translate(49.703125 0)"/>
       <use xlink:href="#SourceSans3-Regular-53b" transform="translate(74.609375 0)"/>
      </g>
     </g>
    </g>
    <g id="ytick_8">
     <g id="line2d_13"/>
     <g id="text_8">
      <!-- 0.8 -->
      <g style="fill: #262626" transform="translate(43.683325 101.96) scale(0.168 -0.168)">
       <defs>
        <path id="SourceSans3-Regular-53d" d="M 1600 -77 
Q 1216 -77 915 67 
Q 614 211 438 467 
Q 262 723 262 1043 
Q 262 1312 374 1520 
Q 486 1728 662 1885 
Q 838 2042 1030 2144 
L 1030 2170 
Q 806 2330 633 2560 
Q 461 2790 461 3110 
Q 461 3424 614 3661 
Q 768 3898 1030 4029 
Q 1293 4160 1619 4160 
Q 2150 4160 2460 3853 
Q 2771 3546 2771 3072 
Q 2771 2861 2681 2672 
Q 2592 2483 2464 2332 
Q 2336 2182 2208 2086 
L 2208 2061 
Q 2394 1958 2554 1817 
Q 2714 1677 2816 1481 
Q 2918 1286 2918 1011 
Q 2918 710 2755 460 
Q 2592 211 2294 67 
Q 1997 -77 1600 -77 
z
M 1888 2227 
Q 2093 2413 2205 2617 
Q 2317 2822 2317 3046 
Q 2317 3347 2131 3558 
Q 1946 3770 1606 3770 
Q 1325 3770 1136 3590 
Q 947 3411 947 3110 
Q 947 2867 1078 2707 
Q 1210 2547 1427 2435 
Q 1645 2323 1888 2227 
z
M 1613 314 
Q 1971 314 2192 515 
Q 2413 717 2413 1030 
Q 2413 1293 2259 1459 
Q 2106 1626 1853 1747 
Q 1600 1869 1306 1984 
Q 1062 1824 899 1600 
Q 736 1376 736 1094 
Q 736 755 989 534 
Q 1242 314 1613 314 
z
" transform="scale(0.015625)"/>
       </defs>
       <use xlink:href="#SourceSans3-Regular-535"/>
       <use xlink:href="#SourceSans3-Regular-56b" transform="translate(49.703125 0)"/>
       <use xlink:href="#SourceSans3-Regular-53d" transform="translate(74.609375 0)"/>
      </g>
     </g>
    </g>
    <g id="ytick_9">
     <g id="line2d_14"/>
     <g id="text_9">
      <!-- 1.0 -->
      <g style="fill: #262626" transform="translate(43.683325 74.96) scale(0.168 -0.168)">
       <defs>
        <path id="SourceSans3-Regular-536" d="M 506 0 
L 506 435 
L 1440 435 
L 1440 3443 
L 698 3443 
L 698 3782 
Q 979 3834 1187 3907 
Q 1395 3981 1562 4083 
L 1965 4083 
L 1965 435 
L 2810 435 
L 2810 0 
L 506 0 
z
" transform="scale(0.015625)"/>
       </defs>
       <use xlink:href="#SourceSans3-Regular-536"/>
       <use xlink:href="#SourceSans3-Regular-56b" transform="translate(49.703125 0)"/>
       <use xlink:href="#SourceSans3-Regular-535" transform="translate(74.609375 0)"/>
      </g>
     </g>
    </g>
    <g id="text_10">
     <!-- Fluctuation R² -->
     <g style="fill: #262626" transform="translate(25.4 228.433422) rotate(-90) scale(0.182 -0.182)">
      <defs>
       <path id="SourceSans3-Regular-7" d="M 576 0 
L 576 4198 
L 2995 4198 
L 2995 3750 
L 1107 3750 
L 1107 2330 
L 2707 2330 
L 2707 1882 
L 1107 1882 
L 1107 0 
L 576 0 
z
" transform="scale(0.015625)"/>
       <path id="SourceSans3-Regular-27" d="M 1082 -58 
Q 787 -58 656 124 
Q 525 307 525 640 
L 525 4557 
L 1050 4557 
L 1050 602 
Q 1050 480 1094 429 
Q 1139 378 1203 378 
Q 1229 378 1251 381 
Q 1274 384 1312 390 
L 1382 -6 
Q 1267 -58 1082 -58 
z
" transform="scale(0.015625)"/>
       <path id="SourceSans3-Regular-30" d="M 1434 -77 
Q 941 -77 710 233 
Q 480 544 480 1139 
L 480 3110 
L 1011 3110 
L 1011 1210 
Q 1011 774 1148 576 
Q 1286 378 1594 378 
Q 1837 378 2025 502 
Q 2214 627 2432 902 
L 2432 3110 
L 2957 3110 
L 2957 0 
L 2522 0 
L 2477 486 
L 2458 486 
Q 2240 230 1997 76 
Q 1754 -77 1434 -77 
z
" transform="scale(0.015625)"/>
       <path id="SourceSans3-Regular-1e" d="M 1760 -77 
Q 1344 -77 1011 115 
Q 678 307 486 672 
Q 294 1037 294 1549 
Q 294 2074 502 2438 
Q 710 2803 1052 2995 
Q 1395 3187 1792 3187 
Q 2099 3187 2320 3084 
Q 2541 2982 2701 2822 
L 2438 2502 
Q 2317 2611 2166 2681 
Q 2016 2752 1811 2752 
Q 1536 2752 1315 2601 
Q 1094 2451 966 2179 
Q 838 1907 838 1549 
Q 838 1018 1107 688 
Q 1376 358 1805 358 
Q 2016 358 2201 441 
Q 2387 525 2528 653 
L 2758 333 
Q 2566 147 2313 35 
Q 2061 -77 1760 -77 
z
" transform="scale(0.015625)"/>
       <path id="SourceSans3-Regular-2f" d="M 1504 -58 
Q 1005 -58 809 227 
Q 614 512 614 979 
L 614 2682 
L 154 2682 
L 154 3078 
L 640 3110 
L 704 4109 
L 1146 4109 
L 1146 3110 
L 1984 3110 
L 1984 2682 
L 1146 2682 
L 1146 966 
Q 1146 685 1251 528 
Q 1357 371 1626 371 
Q 1709 371 1798 387 
Q 1888 403 1978 448 
L 2086 77 
Q 1965 13 1814 -22 
Q 1664 -58 1504 -58 
z
" transform="scale(0.015625)"/>
       <path id="SourceSans3-Regular-1c" d="M 1242 -77 
Q 851 -77 588 153 
Q 326 384 326 806 
Q 326 1331 787 1600 
Q 1248 1869 2246 1978 
Q 2246 2176 2188 2349 
Q 2131 2522 1993 2634 
Q 1856 2746 1600 2746 
Q 1331 2746 1094 2643 
Q 858 2541 672 2426 
L 467 2784 
Q 685 2931 1001 3059 
Q 1318 3187 1690 3187 
Q 2259 3187 2515 2838 
Q 2771 2490 2771 1907 
L 2771 0 
L 2336 0 
L 2291 371 
L 2272 371 
Q 2042 186 1789 54 
Q 1536 -77 1242 -77 
z
M 1389 358 
Q 1613 358 1817 460 
Q 2022 563 2246 762 
L 2246 1600 
Q 1722 1542 1414 1440 
Q 1107 1338 976 1190 
Q 845 1043 845 838 
Q 845 582 1005 470 
Q 1165 358 1389 358 
z
" transform="scale(0.015625)"/>
       <path id="SourceSans3-Regular-24" d="M 525 0 
L 525 3110 
L 1050 3110 
L 1050 0 
L 525 0 
z
M 787 3750 
Q 633 3750 534 3843 
Q 435 3936 435 4096 
Q 435 4250 534 4346 
Q 633 4442 787 4442 
Q 941 4442 1040 4346 
Q 1139 4250 1139 4096 
Q 1139 3936 1040 3843 
Q 941 3750 787 3750 
z
" transform="scale(0.015625)"/>
       <path id="SourceSans3-Regular-2a" d="M 1734 -77 
Q 1357 -77 1027 115 
Q 698 307 496 672 
Q 294 1037 294 1549 
Q 294 2074 496 2438 
Q 698 2803 1027 2995 
Q 1357 3187 1734 3187 
Q 2118 3187 2444 2995 
Q 2771 2803 2972 2438 
Q 3174 2074 3174 1549 
Q 3174 1037 2972 672 
Q 2771 307 2444 115 
Q 2118 -77 1734 -77 
z
M 1734 358 
Q 2138 358 2384 688 
Q 2630 1018 2630 1549 
Q 2630 2086 2384 2419 
Q 2138 2752 1734 2752 
Q 1338 2752 1088 2419 
Q 838 2086 838 1549 
Q 838 1018 1088 688 
Q 1338 358 1734 358 
z
" transform="scale(0.015625)"/>
       <path id="SourceSans3-Regular-29" d="M 525 0 
L 525 3110 
L 960 3110 
L 1005 2662 
L 1024 2662 
Q 1248 2886 1497 3036 
Q 1747 3187 2067 3187 
Q 2560 3187 2787 2876 
Q 3014 2566 3014 1971 
L 3014 0 
L 2490 0 
L 2490 1901 
Q 2490 2336 2349 2534 
Q 2208 2733 1901 2733 
Q 1664 2733 1475 2611 
Q 1286 2490 1050 2253 
L 1050 0 
L 525 0 
z
" transform="scale(0.015625)"/>
       <path id="SourceSans3-Regular-1" transform="scale(0.015625)"/>
       <path id="SourceSans3-Regular-13" d="M 576 0 
L 576 4198 
L 1888 4198 
Q 2317 4198 2649 4086 
Q 2982 3974 3171 3715 
Q 3360 3456 3360 3021 
Q 3360 2534 3104 2236 
Q 2848 1939 2413 1830 
L 3482 0 
L 2880 0 
L 1869 1773 
L 1107 1773 
L 1107 0 
L 576 0 
z
M 1107 2208 
L 1811 2208 
Q 2304 2208 2566 2409 
Q 2829 2611 2829 3021 
Q 2829 3437 2566 3603 
Q 2304 3770 1811 3770 
L 1107 3770 
L 1107 2208 
z
" transform="scale(0.015625)"/>
       <path id="SourceSans3-Regular-7b8" d="M 333 2528 
L 333 2765 
Q 915 3290 1216 3619 
Q 1517 3949 1517 4230 
Q 1517 4474 1389 4614 
Q 1261 4755 1037 4755 
Q 877 4755 742 4649 
Q 608 4544 499 4390 
L 256 4614 
Q 403 4832 617 4966 
Q 832 5101 1088 5101 
Q 1466 5101 1693 4896 
Q 1920 4691 1920 4294 
Q 1920 4058 1798 3837 
Q 1677 3616 1469 3385 
Q 1261 3155 992 2880 
L 2048 2880 
L 2048 2528 
L 333 2528 
z
" transform="scale(0.015625)"/>
      </defs>
      <use xlink:href="#SourceSans3-Regular-7"/>
      <use xlink:href="#SourceSans3-Regular-27" transform="translate(49.40625 0)"/>
      <use xlink:href="#SourceSans3-Regular-30" transform="translate(74.90625 0)"/>
      <use xlink:href="#SourceSans3-Regular-1e" transform="translate(129.3125 0)"/>
      <use xlink:href="#SourceSans3-Regular-2f" transform="translate(173.90625 0)"/>
      <use xlink:href="#SourceSans3-Regular-30" transform="translate(207.703125 0)"/>
      <use xlink:href="#SourceSans3-Regular-1c" transform="translate(262.109375 0)"/>
      <use xlink:href="#SourceSans3-Regular-2f" transform="translate(311.109375 0)"/>
      <use xlink:href="#SourceSans3-Regular-24" transform="translate(344.90625 0)"/>
      <use xlink:href="#SourceSans3-Regular-2a" transform="translate(369.5 0)"/>
      <use xlink:href="#SourceSans3-Regular-29" transform="translate(423.703125 0)"/>
      <use xlink:href="#SourceSans3-Regular-1" transform="translate(478.40625 0)"/>
      <use xlink:href="#SourceSans3-Regular-13" transform="translate(498.40625 0)"/>
      <use xlink:href="#SourceSans3-Regular-7b8" transform="translate(555.3125 0)"/>
     </g>
    </g>
   </g>
   <g id="patch_3">
    <path d="M 80.924968 201.56 
L 116.924968 201.56 
L 116.924968 70.073954 
L 80.924968 70.073954 
z
" clip-path="url(#p3785563396)" style="fill: #457b9d; stroke: #ffffff; stroke-width: 0.5; stroke-linejoin: miter"/>
   </g>
   <g id="patch_4">
    <path d="M 132.353539 201.56 
L 168.353539 201.56 
L 168.353539 81.774664 
L 132.353539 81.774664 
z
" clip-path="url(#p3785563396)" style="fill: #e07b2e; stroke: #ffffff; stroke-width: 0.5; stroke-linejoin: miter"/>
   </g>
   <g id="patch_5">
    <path d="M 183.782111 201.56 
L 219.782111 201.56 
L 219.782111 221.654815 
L 183.782111 221.654815 
z
" clip-path="url(#p3785563396)" style="fill: #2a9d8f; stroke: #ffffff; stroke-width: 0.5; stroke-linejoin: miter"/>
   </g>
   <g id="patch_6">
    <path d="M 235.210682 201.56 
L 271.210682 201.56 
L 271.210682 226.738583 
L 235.210682 226.738583 
z
" clip-path="url(#p3785563396)" style="fill: #8e6bb3; stroke: #ffffff; stroke-width: 0.5; stroke-linejoin: miter"/>
   </g>
   <g id="LineCollection_1">
    <path d="M 80.924968 66.925011 
L 116.924968 66.925011 
" clip-path="url(#p3785563396)" style="fill: none; stroke-dasharray: 1.2,1.98; stroke-dashoffset: 0; stroke: #000000; stroke-width: 1.2"/>
   </g>
   <g id="LineCollection_2">
    <path d="M 132.353539 66.925011 
L 168.353539 66.925011 
" clip-path="url(#p3785563396)" style="fill: none; stroke-dasharray: 1.2,1.98; stroke-dashoffset: 0; stroke: #000000; stroke-width: 1.2"/>
   </g>
   <g id="LineCollection_3">
    <path d="M 183.782111 66.925011 
L 219.782111 66.925011 
" clip-path="url(#p3785563396)" style="fill: none; stroke-dasharray: 1.2,1.98; stroke-dashoffset: 0; stroke: #000000; stroke-width: 1.2"/>
   </g>
   <g id="LineCollection_4">
    <path d="M 235.210682 66.925011 
L 271.210682 66.925011 
" clip-path="url(#p3785563396)" style="fill: none; stroke-dasharray: 1.2,1.98; stroke-dashoffset: 0; stroke: #000000; stroke-width: 1.2"/>
   </g>
   <g id="line2d_15">
    <path d="M 68.067825 201.56 
L 284.067825 201.56 
" clip-path="url(#p3785563396)" style="fill: none; stroke: #000000; stroke-width: 0.5; stroke-linecap: round"/>
   </g>
   <g id="patch_7">
    <path d="M 68.067825 282.56 
L 68.067825 66.56 
" style="fill: none; stroke: #cccccc; stroke-linejoin: miter; stroke-linecap: square"/>
   </g>
   <g id="patch_8">
    <path d="M 284.067825 282.56 
L 284.067825 66.56 
" style="fill: none; stroke: #cccccc; stroke-linejoin: miter; stroke-linecap: square"/>
   </g>
   <g id="patch_9">
    <path d="M 68.067825 282.56 
L 284.067825 282.56 
" style="fill: none; stroke: #cccccc; stroke-linejoin: miter; stroke-linecap: square"/>
   </g>
   <g id="patch_10">
    <path d="M 68.067825 66.56 
L 284.067825 66.56 
" style="fill: none; stroke: #cccccc; stroke-linejoin: miter; stroke-linecap: square"/>
   </g>
   <g id="PathCollection_1">
    <defs>
     <path id="m5b7d885002" d="M 0 1.414214 
C 0.375054 1.414214 0.734797 1.265203 1 1 
C 1.265203 0.734797 1.414214 0.375054 1.414214 0 
C 1.414214 -0.375054 1.265203 -0.734797 1 -1 
C 0.734797 -1.265203 0.375054 -1.414214 0 -1.414214 
C -0.375054 -1.414214 -0.734797 -1.265203 -1 -1 
C -1.265203 -0.734797 -1.414214 -0.375054 -1.414214 0 
C -1.414214 0.375054 -1.265203 0.734797 -1 1 
C -0.734797 1.265203 -0.375054 1.414214 0 1.414214 
z
" style="stroke: #000000"/>
    </defs>
    <g clip-path="url(#p3785563396)">
     <use xlink:href="#m5b7d885002" x="98.924968" y="69.664421" style="stroke: #000000"/>
     <use xlink:href="#m5b7d885002" x="98.924968" y="72.255169" style="stroke: #000000"/>
     <use xlink:href="#m5b7d885002" x="98.924968" y="68.302272" style="stroke: #000000"/>
    </g>
   </g>
   <g id="PathCollection_2">
    <g clip-path="url(#p3785563396)">
     <use xlink:href="#m5b7d885002" x="150.353539" y="80.794113" style="stroke: #000000"/>
     <use xlink:href="#m5b7d885002" x="150.353539" y="80.430752" style="stroke: #000000"/>
     <use xlink:href="#m5b7d885002" x="150.353539" y="84.099128" style="stroke: #000000"/>
    </g>
   </g>
   <g id="PathCollection_3">
    <g clip-path="url(#p3785563396)">
     <use xlink:href="#m5b7d885002" x="201.782111" y="220.282329" style="stroke: #000000"/>
     <use xlink:href="#m5b7d885002" x="201.782111" y="223.100821" style="stroke: #000000"/>
     <use xlink:href="#m5b7d885002" x="201.782111" y="221.581296" style="stroke: #000000"/>
    </g>
   </g>
   <g id="PathCollection_4">
    <g clip-path="url(#p3785563396)">
     <use xlink:href="#m5b7d885002" x="253.210682" y="221.199274" style="stroke: #000000"/>
     <use xlink:href="#m5b7d885002" x="253.210682" y="233.391314" style="stroke: #000000"/>
     <use xlink:href="#m5b7d885002" x="253.210682" y="225.62516" style="stroke: #000000"/>
    </g>
   </g>
   <g id="text_11">
    <!-- Observed -->
    <g style="fill: #262626" transform="translate(138.575825 56.48) scale(0.182 -0.182)">
     <defs>
      <path id="SourceSans3-Semibold-10" d="M 2157 -77 
Q 1613 -77 1197 188 
Q 781 454 547 944 
Q 314 1434 314 2112 
Q 314 2790 547 3270 
Q 781 3750 1197 4006 
Q 1613 4262 2157 4262 
Q 2707 4262 3123 4006 
Q 3539 3750 3772 3270 
Q 4006 2790 4006 2112 
Q 4006 1434 3772 944 
Q 3539 454 3123 188 
Q 2707 -77 2157 -77 
z
M 2157 570 
Q 2650 570 2944 989 
Q 3238 1408 3238 2112 
Q 3238 2816 2944 3216 
Q 2650 3616 2157 3616 
Q 1664 3616 1369 3216 
Q 1075 2816 1075 2112 
Q 1075 1408 1369 989 
Q 1664 570 2157 570 
z
" transform="scale(0.015625)"/>
      <path id="SourceSans3-Semibold-1d" d="M 1990 -77 
Q 1542 -77 1133 333 
L 1114 333 
L 1050 0 
L 467 0 
L 467 4518 
L 1203 4518 
L 1203 3354 
L 1184 2829 
Q 1382 3002 1619 3110 
Q 1856 3219 2093 3219 
Q 2682 3219 3008 2784 
Q 3334 2349 3334 1626 
Q 3334 1088 3142 707 
Q 2950 326 2646 124 
Q 2342 -77 1990 -77 
z
M 1837 531 
Q 2150 531 2361 806 
Q 2573 1082 2573 1613 
Q 2573 2086 2413 2348 
Q 2253 2611 1894 2611 
Q 1562 2611 1203 2259 
L 1203 794 
Q 1370 653 1533 592 
Q 1696 531 1837 531 
z
" transform="scale(0.015625)"/>
      <path id="SourceSans3-Semibold-2e" d="M 1344 -77 
Q 1018 -77 701 44 
Q 384 166 154 384 
L 480 806 
Q 685 634 905 557 
Q 1126 480 1370 480 
Q 1626 480 1747 589 
Q 1869 698 1869 858 
Q 1869 1056 1670 1158 
Q 1472 1261 1210 1357 
Q 986 1440 784 1558 
Q 582 1677 457 1853 
Q 333 2029 333 2278 
Q 333 2694 640 2956 
Q 947 3219 1472 3219 
Q 1792 3219 2061 3113 
Q 2330 3008 2522 2842 
L 2195 2426 
Q 1862 2662 1491 2662 
Q 1254 2662 1139 2563 
Q 1024 2464 1024 2317 
Q 1024 2144 1190 2051 
Q 1357 1958 1651 1856 
Q 1894 1773 2102 1654 
Q 2310 1536 2438 1353 
Q 2566 1171 2566 896 
Q 2566 493 2252 208 
Q 1939 -77 1344 -77 
z
" transform="scale(0.015625)"/>
      <path id="SourceSans3-Semibold-20" d="M 1728 2637 
Q 1498 2637 1290 2480 
Q 1082 2323 1011 1907 
L 2355 1907 
Q 2355 2246 2201 2441 
Q 2048 2637 1728 2637 
z
M 1818 -77 
Q 1376 -77 1021 118 
Q 666 314 461 682 
Q 256 1050 256 1574 
Q 256 2086 467 2454 
Q 678 2822 1011 3020 
Q 1344 3219 1715 3219 
Q 2144 3219 2432 3027 
Q 2720 2835 2864 2499 
Q 3008 2163 3008 1728 
Q 3008 1517 2970 1344 
L 998 1344 
Q 1062 915 1321 713 
Q 1581 512 1907 512 
Q 2298 512 2637 730 
L 2893 256 
Q 2675 102 2396 12 
Q 2118 -77 1818 -77 
z
" transform="scale(0.015625)"/>
      <path id="SourceSans3-Semibold-2d" d="M 467 0 
L 467 3142 
L 1075 3142 
L 1126 2586 
L 1152 2586 
Q 1318 2893 1552 3056 
Q 1786 3219 2042 3219 
Q 2266 3219 2400 3155 
L 2253 2528 
Q 2176 2547 2112 2556 
Q 2048 2566 1946 2566 
Q 1760 2566 1555 2422 
Q 1350 2278 1203 1920 
L 1203 0 
L 467 0 
z
" transform="scale(0.015625)"/>
      <path id="SourceSans3-Semibold-31" d="M 1171 0 
L 77 3142 
L 826 3142 
L 1325 1510 
Q 1389 1280 1456 1043 
Q 1523 806 1587 563 
L 1613 563 
Q 1683 806 1750 1043 
Q 1818 1280 1882 1510 
L 2381 3142 
L 3091 3142 
L 2022 0 
L 1171 0 
z
" transform="scale(0.015625)"/>
      <path id="SourceSans3-Semibold-1f" d="M 1568 -77 
Q 979 -77 627 358 
Q 275 794 275 1568 
Q 275 2080 464 2451 
Q 653 2822 960 3020 
Q 1267 3219 1606 3219 
Q 1875 3219 2064 3126 
Q 2253 3034 2432 2874 
L 2406 3379 
L 2406 4518 
L 3142 4518 
L 3142 0 
L 2534 0 
L 2483 339 
L 2458 339 
Q 2285 166 2054 44 
Q 1824 -77 1568 -77 
z
M 1747 531 
Q 2099 531 2406 883 
L 2406 2349 
Q 2246 2496 2086 2553 
Q 1926 2611 1766 2611 
Q 1466 2611 1251 2339 
Q 1037 2067 1037 1574 
Q 1037 1069 1222 800 
Q 1408 531 1747 531 
z
" transform="scale(0.015625)"/>
     </defs>
     <use xlink:href="#SourceSans3-Semibold-10"/>
     <use xlink:href="#SourceSans3-Semibold-1d" transform="translate(67.40625 0)"/>
     <use xlink:href="#SourceSans3-Semibold-2e" transform="translate(123.296875 0)"/>
     <use xlink:href="#SourceSans3-Semibold-20" transform="translate(166.390625 0)"/>
     <use xlink:href="#SourceSans3-Semibold-2d" transform="translate(217.09375 0)"/>
     <use xlink:href="#SourceSans3-Semibold-31" transform="translate(255.984375 0)"/>
     <use xlink:href="#SourceSans3-Semibold-20" transform="translate(304.890625 0)"/>
     <use xlink:href="#SourceSans3-Semibold-1f" transform="translate(355.59375 0)"/>
    </g>
   </g>
  </g>
  <g id="axes_2">
   <g id="patch_11">
    <path d="M 305.667825 282.56 
L 521.667825 282.56 
L 521.667825 66.56 
L 305.667825 66.56 
z
" style="fill: #ffffff"/>
   </g>
   <g id="line2d_16">
    <path d="M 305.667825 201.56 
L 521.667825 201.56 
" clip-path="url(#p174f3780a1)" style="fill: none; stroke: #9e9e9e; stroke-linecap: round"/>
   </g>
   <g id="matplotlib.axis_3">
    <g id="xtick_5">
     <g id="line2d_17"/>
    </g>
    <g id="xtick_6">
     <g id="line2d_18"/>
    </g>
    <g id="xtick_7">
     <g id="line2d_19"/>
    </g>
    <g id="xtick_8">
     <g id="line2d_20"/>
    </g>
   </g>
   <g id="matplotlib.axis_4">
    <g id="ytick_10">
     <g id="line2d_21"/>
    </g>
    <g id="ytick_11">
     <g id="line2d_22"/>
    </g>
    <g id="ytick_12">
     <g id="line2d_23"/>
    </g>
    <g id="ytick_13">
     <g id="line2d_24"/>
    </g>
    <g id="ytick_14">
     <g id="line2d_25"/>
    </g>
    <g id="ytick_15">
     <g id="line2d_26"/>
    </g>
    <g id="ytick_16">
     <g id="line2d_27"/>
    </g>
    <g id="ytick_17">
     <g id="line2d_28"/>
    </g>
    <g id="ytick_18">
     <g id="line2d_29"/>
    </g>
   </g>
   <g id="patch_12">
    <path d="M 318.524968 201.56 
L 354.524968 201.56 
L 354.524968 70.919628 
L 318.524968 70.919628 
z
" clip-path="url(#p174f3780a1)" style="fill: #457b9d; stroke: #ffffff; stroke-width: 0.5; stroke-linejoin: miter"/>
   </g>
   <g id="patch_13">
    <path d="M 369.953539 201.56 
L 405.953539 201.56 
L 405.953539 252.638175 
L 369.953539 252.638175 
z
" clip-path="url(#p174f3780a1)" style="fill: #e07b2e; stroke: #ffffff; stroke-width: 0.5; stroke-linejoin: miter"/>
   </g>
   <g id="patch_14">
    <path d="M 421.382111 201.56 
L 457.382111 201.56 
L 457.382111 226.235454 
L 421.382111 226.235454 
z
" clip-path="url(#p174f3780a1)" style="fill: #2a9d8f; stroke: #ffffff; stroke-width: 0.5; stroke-linejoin: miter"/>
   </g>
   <g id="patch_15">
    <path d="M 472.810682 201.56 
L 508.810682 201.56 
L 508.810682 227.832259 
L 472.810682 227.832259 
z
" clip-path="url(#p174f3780a1)" style="fill: #8e6bb3; stroke: #ffffff; stroke-width: 0.5; stroke-linejoin: miter"/>
   </g>
   <g id="LineCollection_5">
    <path d="M 318.524968 66.960564 
L 354.524968 66.960564 
" clip-path="url(#p174f3780a1)" style="fill: none; stroke-dasharray: 1.2,1.98; stroke-dashoffset: 0; stroke: #000000; stroke-width: 1.2"/>
   </g>
   <g id="LineCollection_6">
    <path d="M 369.953539 66.960564 
L 405.953539 66.960564 
" clip-path="url(#p174f3780a1)" style="fill: none; stroke-dasharray: 1.2,1.98; stroke-dashoffset: 0; stroke: #000000; stroke-width: 1.2"/>
   </g>
   <g id="LineCollection_7">
    <path d="M 421.382111 66.960564 
L 457.382111 66.960564 
" clip-path="url(#p174f3780a1)" style="fill: none; stroke-dasharray: 1.2,1.98; stroke-dashoffset: 0; stroke: #000000; stroke-width: 1.2"/>
   </g>
   <g id="LineCollection_8">
    <path d="M 472.810682 66.960564 
L 508.810682 66.960564 
" clip-path="url(#p174f3780a1)" style="fill: none; stroke-dasharray: 1.2,1.98; stroke-dashoffset: 0; stroke: #000000; stroke-width: 1.2"/>
   </g>
   <g id="line2d_30">
    <path d="M 305.667825 201.56 
L 521.667825 201.56 
" clip-path="url(#p174f3780a1)" style="fill: none; stroke: #000000; stroke-width: 0.5; stroke-linecap: round"/>
   </g>
   <g id="patch_16">
    <path d="M 305.667825 282.56 
L 305.667825 66.56 
" style="fill: none; stroke: #cccccc; stroke-linejoin: miter; stroke-linecap: square"/>
   </g>
   <g id="patch_17">
    <path d="M 521.667825 282.56 
L 521.667825 66.56 
" style="fill: none; stroke: #cccccc; stroke-linejoin: miter; stroke-linecap: square"/>
   </g>
   <g id="patch_18">
    <path d="M 305.667825 282.56 
L 521.667825 282.56 
" style="fill: none; stroke: #cccccc; stroke-linejoin: miter; stroke-linecap: square"/>
   </g>
   <g id="patch_19">
    <path d="M 305.667825 66.56 
L 521.667825 66.56 
" style="fill: none; stroke: #cccccc; stroke-linejoin: miter; stroke-linecap: square"/>
   </g>
   <g id="PathCollection_5">
    <g clip-path="url(#p174f3780a1)">
     <use xlink:href="#m5b7d885002" x="336.524968" y="69.390015" style="stroke: #000000"/>
     <use xlink:href="#m5b7d885002" x="336.524968" y="74.846932" style="stroke: #000000"/>
     <use xlink:href="#m5b7d885002" x="336.524968" y="68.521937" style="stroke: #000000"/>
    </g>
   </g>
   <g id="PathCollection_6">
    <g clip-path="url(#p174f3780a1)">
     <use xlink:href="#m5b7d885002" x="387.953539" y="231.667775" style="stroke: #000000"/>
     <use xlink:href="#m5b7d885002" x="387.953539" y="281.549347" style="stroke: #000000"/>
     <use xlink:href="#m5b7d885002" x="387.953539" y="244.697404" style="stroke: #000000"/>
    </g>
   </g>
   <g id="PathCollection_7">
    <g clip-path="url(#p174f3780a1)">
     <use xlink:href="#m5b7d885002" x="439.382111" y="214.936166" style="stroke: #000000"/>
     <use xlink:href="#m5b7d885002" x="439.382111" y="244.372385" style="stroke: #000000"/>
     <use xlink:href="#m5b7d885002" x="439.382111" y="219.397811" style="stroke: #000000"/>
    </g>
   </g>
   <g id="PathCollection_8">
    <g clip-path="url(#p174f3780a1)">
     <use xlink:href="#m5b7d885002" x="490.810682" y="211.467667" style="stroke: #000000"/>
     <use xlink:href="#m5b7d885002" x="490.810682" y="234.870606" style="stroke: #000000"/>
     <use xlink:href="#m5b7d885002" x="490.810682" y="237.158503" style="stroke: #000000"/>
    </g>
   </g>
   <g id="text_12">
    <!-- Unobserved -->
    <g style="fill: #262626" transform="translate(366.256825 56.48) scale(0.182 -0.182)">
     <defs>
      <path id="SourceSans3-Semibold-16" d="M 2099 -77 
Q 1619 -77 1260 112 
Q 902 301 707 713 
Q 512 1126 512 1798 
L 512 4186 
L 1254 4186 
L 1254 1741 
Q 1254 1299 1360 1043 
Q 1466 787 1658 678 
Q 1850 570 2099 570 
Q 2355 570 2550 678 
Q 2746 787 2858 1043 
Q 2970 1299 2970 1741 
L 2970 4186 
L 3680 4186 
L 3680 1798 
Q 3680 1126 3488 713 
Q 3296 301 2941 112 
Q 2586 -77 2099 -77 
z
" transform="scale(0.015625)"/>
      <path id="SourceSans3-Semibold-29" d="M 467 0 
L 467 3142 
L 1075 3142 
L 1126 2720 
L 1152 2720 
Q 1363 2925 1612 3072 
Q 1862 3219 2182 3219 
Q 2688 3219 2918 2892 
Q 3149 2566 3149 1971 
L 3149 0 
L 2413 0 
L 2413 1875 
Q 2413 2266 2297 2426 
Q 2182 2586 1920 2586 
Q 1715 2586 1558 2486 
Q 1402 2387 1203 2195 
L 1203 0 
L 467 0 
z
" transform="scale(0.015625)"/>
      <path id="SourceSans3-Semibold-2a" d="M 1754 -77 
Q 1363 -77 1024 118 
Q 685 314 473 682 
Q 262 1050 262 1568 
Q 262 2093 473 2461 
Q 685 2829 1024 3024 
Q 1363 3219 1754 3219 
Q 2150 3219 2489 3024 
Q 2829 2829 3040 2461 
Q 3251 2093 3251 1568 
Q 3251 1050 3040 682 
Q 2829 314 2489 118 
Q 2150 -77 1754 -77 
z
M 1754 525 
Q 2099 525 2297 813 
Q 2496 1101 2496 1568 
Q 2496 2042 2297 2330 
Q 2099 2618 1754 2618 
Q 1408 2618 1213 2330 
Q 1018 2042 1018 1568 
Q 1018 1101 1213 813 
Q 1408 525 1754 525 
z
" transform="scale(0.015625)"/>
     </defs>
     <use xlink:href="#SourceSans3-Semibold-16"/>
     <use xlink:href="#SourceSans3-Semibold-29" transform="translate(65.5 0)"/>
     <use xlink:href="#SourceSans3-Semibold-2a" transform="translate(121.5 0)"/>
     <use xlink:href="#SourceSans3-Semibold-1d" transform="translate(176.40625 0)"/>
     <use xlink:href="#SourceSans3-Semibold-2e" transform="translate(232.296875 0)"/>
     <use xlink:href="#SourceSans3-Semibold-20" transform="translate(275.390625 0)"/>
     <use xlink:href="#SourceSans3-Semibold-2d" transform="translate(326.09375 0)"/>
     <use xlink:href="#SourceSans3-Semibold-31" transform="translate(364.984375 0)"/>
     <use xlink:href="#SourceSans3-Semibold-20" transform="translate(413.890625 0)"/>
     <use xlink:href="#SourceSans3-Semibold-1f" transform="translate(464.59375 0)"/>
    </g>
   </g>
  </g>
  <g id="text_13">
   <!-- Held-Out Test Set Accuracy -->
   <g style="fill: #262626" transform="translate(182.042263 26.8) scale(0.196 -0.196)">
    <defs>
     <path id="SourceSans3-Semibold-9" d="M 531 0 
L 531 4186 
L 1274 4186 
L 1274 2502 
L 2970 2502 
L 2970 4186 
L 3712 4186 
L 3712 0 
L 2970 0 
L 2970 1856 
L 1274 1856 
L 1274 0 
L 531 0 
z
" transform="scale(0.015625)"/>
     <path id="SourceSans3-Semibold-27" d="M 1184 -64 
Q 794 -64 630 173 
Q 467 410 467 819 
L 467 4518 
L 1203 4518 
L 1203 781 
Q 1203 640 1254 589 
Q 1306 538 1370 538 
Q 1395 538 1417 541 
Q 1440 544 1478 550 
L 1574 0 
Q 1510 -26 1411 -45 
Q 1312 -64 1184 -64 
z
" transform="scale(0.015625)"/>
     <path id="SourceSans3-Semibold-587" d="M 269 1344 
L 269 1882 
L 1792 1882 
L 1792 1344 
L 269 1344 
z
" transform="scale(0.015625)"/>
     <path id="SourceSans3-Semibold-30" d="M 1402 -77 
Q 896 -77 665 249 
Q 435 576 435 1171 
L 435 3142 
L 1171 3142 
L 1171 1267 
Q 1171 877 1286 717 
Q 1402 557 1658 557 
Q 1862 557 2019 659 
Q 2176 762 2355 992 
L 2355 3142 
L 3091 3142 
L 3091 0 
L 2490 0 
L 2432 461 
L 2413 461 
Q 2208 218 1965 70 
Q 1722 -77 1402 -77 
z
" transform="scale(0.015625)"/>
     <path id="SourceSans3-Semibold-2f" d="M 1574 -64 
Q 1030 -64 803 249 
Q 576 563 576 1069 
L 576 2560 
L 128 2560 
L 128 3110 
L 614 3142 
L 704 4128 
L 1318 4128 
L 1318 3142 
L 2118 3142 
L 2118 2560 
L 1318 2560 
L 1318 1069 
Q 1318 518 1760 518 
Q 1939 518 2086 582 
L 2221 64 
Q 2099 13 1932 -25 
Q 1766 -64 1574 -64 
z
" transform="scale(0.015625)"/>
     <path id="SourceSans3-Semibold-1" transform="scale(0.015625)"/>
     <path id="SourceSans3-Semibold-15" d="M 1376 0 
L 1376 3558 
L 166 3558 
L 166 4186 
L 3328 4186 
L 3328 3558 
L 2118 3558 
L 2118 0 
L 1376 0 
z
" transform="scale(0.015625)"/>
     <path id="SourceSans3-Semibold-14" d="M 1754 -77 
Q 858 -77 243 538 
L 646 1024 
Q 870 806 1168 688 
Q 1466 570 1766 570 
Q 2125 570 2310 717 
Q 2496 864 2496 1107 
Q 2496 1370 2313 1485 
Q 2131 1600 1850 1722 
L 1274 1971 
Q 1069 2061 873 2205 
Q 678 2349 553 2566 
Q 429 2784 429 3085 
Q 429 3418 608 3683 
Q 787 3949 1107 4105 
Q 1427 4262 1837 4262 
Q 2214 4262 2550 4121 
Q 2886 3981 3123 3750 
L 2733 3264 
Q 2534 3430 2307 3523 
Q 2080 3616 1837 3616 
Q 1542 3616 1360 3485 
Q 1178 3354 1178 3123 
Q 1178 2963 1270 2857 
Q 1363 2752 1516 2678 
Q 1670 2605 1843 2534 
L 2413 2298 
Q 2790 2138 3024 1878 
Q 3258 1619 3258 1165 
Q 3258 826 3078 544 
Q 2899 262 2563 92 
Q 2227 -77 1754 -77 
z
" transform="scale(0.015625)"/>
     <path id="SourceSans3-Semibold-2" d="M 1389 2227 
L 1242 1715 
L 2310 1715 
L 2163 2227 
Q 2061 2560 1968 2912 
Q 1875 3264 1786 3610 
L 1760 3610 
Q 1677 3258 1584 2909 
Q 1491 2560 1389 2227 
z
M -13 0 
L 1350 4186 
L 2221 4186 
L 3584 0 
L 2803 0 
L 2477 1133 
L 1069 1133 
L 742 0 
L -13 0 
z
" transform="scale(0.015625)"/>
     <path id="SourceSans3-Semibold-1e" d="M 1792 -77 
Q 1357 -77 1011 118 
Q 666 314 464 682 
Q 262 1050 262 1568 
Q 262 2093 480 2461 
Q 698 2829 1059 3024 
Q 1421 3219 1837 3219 
Q 2138 3219 2365 3123 
Q 2592 3027 2758 2867 
L 2406 2413 
Q 2304 2502 2173 2560 
Q 2042 2618 1875 2618 
Q 1504 2618 1261 2330 
Q 1018 2042 1018 1568 
Q 1018 1101 1254 813 
Q 1491 525 1862 525 
Q 2048 525 2211 592 
Q 2374 659 2502 774 
L 2803 320 
Q 2605 141 2345 32 
Q 2086 -77 1792 -77 
z
" transform="scale(0.015625)"/>
     <path id="SourceSans3-Semibold-1c" d="M 1229 -77 
Q 819 -77 556 179 
Q 294 435 294 845 
Q 294 1376 739 1648 
Q 1184 1920 2150 2022 
Q 2144 2266 2019 2438 
Q 1894 2611 1574 2611 
Q 1344 2611 1123 2528 
Q 902 2445 691 2317 
L 422 2816 
Q 685 2982 1014 3100 
Q 1344 3219 1715 3219 
Q 2304 3219 2595 2870 
Q 2886 2522 2886 1856 
L 2886 0 
L 2278 0 
L 2227 346 
L 2202 346 
Q 1984 166 1747 44 
Q 1510 -77 1229 -77 
z
M 1459 525 
Q 1651 525 1814 605 
Q 1978 685 2150 845 
L 2150 1510 
Q 1510 1434 1260 1286 
Q 1011 1139 1011 896 
Q 1011 698 1139 611 
Q 1267 525 1459 525 
z
" transform="scale(0.015625)"/>
     <path id="SourceSans3-Semibold-34" d="M 678 -1293 
Q 550 -1293 454 -1273 
Q 358 -1254 269 -1216 
L 410 -666 
Q 474 -685 525 -691 
Q 576 -698 627 -698 
Q 877 -698 1027 -547 
Q 1178 -397 1254 -160 
L 1312 38 
L 77 3142 
L 826 3142 
L 1370 1600 
Q 1440 1395 1507 1168 
Q 1574 941 1645 717 
L 1670 717 
Q 1728 934 1789 1161 
Q 1850 1389 1907 1600 
L 2381 3142 
L 3091 3142 
L 1952 -141 
Q 1754 -672 1472 -982 
Q 1190 -1293 678 -1293 
z
" transform="scale(0.015625)"/>
    </defs>
    <use xlink:href="#SourceSans3-Semibold-9"/>
    <use xlink:href="#SourceSans3-Semibold-20" transform="translate(66.296875 0)"/>
    <use xlink:href="#SourceSans3-Semibold-27" transform="translate(117 0)"/>
    <use xlink:href="#SourceSans3-Semibold-1f" transform="translate(144.09375 0)"/>
    <use xlink:href="#SourceSans3-Semibold-587" transform="translate(200.5 0)"/>
    <use xlink:href="#SourceSans3-Semibold-10" transform="translate(232.703125 0)"/>
    <use xlink:href="#SourceSans3-Semibold-30" transform="translate(300.109375 0)"/>
    <use xlink:href="#SourceSans3-Semibold-2f" transform="translate(355.703125 0)"/>
    <use xlink:href="#SourceSans3-Semibold-1" transform="translate(391.796875 0)"/>
    <use xlink:href="#SourceSans3-Semibold-15" transform="translate(411.796875 0)"/>
    <use xlink:href="#SourceSans3-Semibold-20" transform="translate(459.296875 0)"/>
    <use xlink:href="#SourceSans3-Semibold-2e" transform="translate(510 0)"/>
    <use xlink:href="#SourceSans3-Semibold-2f" transform="translate(551.09375 0)"/>
    <use xlink:href="#SourceSans3-Semibold-1" transform="translate(587.1875 0)"/>
    <use xlink:href="#SourceSans3-Semibold-14" transform="translate(607.1875 0)"/>
    <use xlink:href="#SourceSans3-Semibold-20" transform="translate(661.6875 0)"/>
    <use xlink:href="#SourceSans3-Semibold-2f" transform="translate(711.390625 0)"/>
    <use xlink:href="#SourceSans3-Semibold-1" transform="translate(747.484375 0)"/>
    <use xlink:href="#SourceSans3-Semibold-2" transform="translate(767.484375 0)"/>
    <use xlink:href="#SourceSans3-Semibold-1e" transform="translate(823.28125 0)"/>
    <use xlink:href="#SourceSans3-Semibold-1e" transform="translate(867.078125 0)"/>
    <use xlink:href="#SourceSans3-Semibold-30" transform="translate(913.28125 0)"/>
    <use xlink:href="#SourceSans3-Semibold-2d" transform="translate(968.875 0)"/>
    <use xlink:href="#SourceSans3-Semibold-1c" transform="translate(1003.578125 0)"/>
    <use xlink:href="#SourceSans3-Semibold-1e" transform="translate(1055.171875 0)"/>
    <use xlink:href="#SourceSans3-Semibold-34" transform="translate(1101.78125 0)"/>
   </g>
  </g>
 </g>
 <defs>
  <clipPath id="p3785563396">
   <rect x="68.067825" y="66.56" width="216" height="216"/>
  </clipPath>
  <clipPath id="p174f3780a1">
   <rect x="305.667825" y="66.56" width="216" height="216"/>
  </clipPath>
 </defs>
</svg>
