<?xml version="1.0" encoding="utf-8" standalone="no"?>
<!DOCTYPE svg PUBLIC "-//W3C//DTD SVG 1.1//EN"
  "http://www.w3.org/Graphics/SVG/1.1/DTD/svg11.dtd">
<svg xmlns:xlink="http://www.w3.org/1999/xlink" width="836.748375pt" height="404.832492pt" viewBox="0 0 836.748375 404.832492" xmlns="http://www.w3.org/2000/svg" version="1.1">
 <metadata>
  <rdf:RDF xmlns:dc="http://purl.org/dc/elements/1.1/" xmlns:cc="http://creativecommons.org/ns#" xmlns:rdf="http://www.w3.org/1999/02/22-rdf-syntax-ns#">
   <cc:Work>
    <dc:type rdf:resource="http://purl.org/dc/dcmitype/StillImage"/>
    <dc:date>2026-09-16T17:48:44.062418</dc:date>
    <dc:format>image/svg+xml</dc:format>
    <dc:creator>
     <cc:Agent>
      <dc:title>Matplotlib v3.11.0, https://matplotlib.org/</dc:title>
     </cc:Agent>
    </dc:creator>
   </cc:Work>
  </rdf:RDF>
 </metadata>
 <defs>
  <style type="text/css">*{stroke-linejoin: round; stroke-linecap: butt}</style>
 </defs>
 <g id="figure_1">
  <g id="patch_1">
   <path d="M 0 404.832492 
L 836.748375 404.832492 
L 836.748375 0 
L 0 0 
z
" style="fill: #ffffff"/>
  </g>
  <g id="axes_1">
   <g id="patch_2">
    <path d="M 57.739125 355.221164 
L 829.548375 355.221164 
L 829.548375 28.925391 
L 57.739125 28.925391 
z
" style="fill: #ffffff"/>
   </g>
   <g id="matplotlib.axis_1">
    <g id="xtick_1">
     <g id="line2d_1">
      <path d="M 173.510513 355.221164 
L 173.510513 28.925391 
" clip-path="url(#p63f9354137)" style="fill: none; stroke: #cccccc; stroke-width: 0.8; stroke-linecap: round"/>
     </g>
     <g id="line2d_2"/>
     <g id="text_1">
      <!-- 0.1 -->
      <g style="fill: #262626" transform="translate(161.000513 371.825656) scale(0.18 -0.18)">
       <defs>
        <path id="ArialMT-13" d="M 266 2259 
Q 266 3072 433 3567 
Q 600 4063 929 4331 
Q 1259 4600 1759 4600 
Q 2128 4600 2406 4451 
Q 2684 4303 2865 4023 
Q 3047 3744 3150 3342 
Q 3253 2941 3253 2259 
Q 3253 1453 3087 958 
Q 2922 463 2592 192 
Q 2263 -78 1759 -78 
Q 1097 -78 719 397 
Q 266 969 266 2259 
z
M 844 2259 
Q 844 1131 1108 757 
Q 1372 384 1759 384 
Q 2147 384 2411 759 
Q 2675 1134 2675 2259 
Q 2675 3391 2411 3762 
Q 2147 4134 1753 4134 
Q 1366 4134 1134 3806 
Q 844 3388 844 2259 
z
" transform="scale(0.015625)"/>
        <path id="ArialMT-11" d="M 581 0 
L 581 641 
L 1222 641 
L 1222 0 
L 581 0 
z
" transform="scale(0.015625)"/>
        <path id="ArialMT-14" d="M 2384 0 
L 1822 0 
L 1822 3584 
Q 1619 3391 1289 3197 
Q 959 3003 697 2906 
L 697 3450 
Q 1169 3672 1522 3987 
Q 1875 4303 2022 4600 
L 2384 4600 
L 2384 0 
z
" transform="scale(0.015625)"/>
       </defs>
       <use xlink:href="#ArialMT-13"/>
       <use xlink:href="#ArialMT-11" transform="translate(55.609375 0)"/>
       <use xlink:href="#ArialMT-14" transform="translate(83.390625 0)"/>
      </g>
     </g>
    </g>
    <g id="xtick_2">
     <g id="line2d_3">
      <path d="M 327.872363 355.221164 
L 327.872363 28.925391 
" clip-path="url(#p63f9354137)" style="fill: none; stroke: #cccccc; stroke-width: 0.8; stroke-linecap: round"/>
     </g>
     <g id="line2d_4"/>
     <g id="text_2">
      <!-- 0.2 -->
      <g style="fill: #262626" transform="translate(315.362363 371.825656) scale(0.18 -0.18)">
       <defs>
        <path id="ArialMT-15" d="M 3222 541 
L 3222 0 
L 194 0 
Q 188 203 259 391 
Q 375 700 629 1000 
Q 884 1300 1366 1694 
Q 2113 2306 2375 2664 
Q 2638 3022 2638 3341 
Q 2638 3675 2398 3904 
Q 2159 4134 1775 4134 
Q 1369 4134 1125 3890 
Q 881 3647 878 3216 
L 300 3275 
Q 359 3922 746 4261 
Q 1134 4600 1788 4600 
Q 2447 4600 2831 4234 
Q 3216 3869 3216 3328 
Q 3216 3053 3103 2787 
Q 2991 2522 2730 2228 
Q 2469 1934 1863 1422 
Q 1356 997 1212 845 
Q 1069 694 975 541 
L 3222 541 
z
" transform="scale(0.015625)"/>
       </defs>
       <use xlink:href="#ArialMT-13"/>
       <use xlink:href="#ArialMT-11" transform="translate(55.609375 0)"/>
       <use xlink:href="#ArialMT-15" transform="translate(83.390625 0)"/>
      </g>
     </g>
    </g>
    <g id="xtick_3">
     <g id="line2d_5">
      <path d="M 482.234213 355.221164 
L 482.234213 28.925391 
" clip-path="url(#p63f9354137)" style="fill: none; stroke: #cccccc; stroke-width: 0.8; stroke-linecap: round"/>
     </g>
     <g id="line2d_6"/>
     <g id="text_3">
      <!-- 0.3 -->
      <g style="fill: #262626" transform="translate(469.724213 371.825656) scale(0.18 -0.18)">
       <defs>
        <path id="ArialMT-16" d="M 269 1209 
L 831 1284 
Q 928 806 1161 595 
Q 1394 384 1728 384 
Q 2125 384 2398 659 
Q 2672 934 2672 1341 
Q 2672 1728 2419 1979 
Q 2166 2231 1775 2231 
Q 1616 2231 1378 2169 
L 1441 2663 
Q 1497 2656 1531 2656 
Q 1891 2656 2178 2843 
Q 2466 3031 2466 3422 
Q 2466 3731 2256 3934 
Q 2047 4138 1716 4138 
Q 1388 4138 1169 3931 
Q 950 3725 888 3313 
L 325 3413 
Q 428 3978 793 4289 
Q 1159 4600 1703 4600 
Q 2078 4600 2393 4439 
Q 2709 4278 2876 4000 
Q 3044 3722 3044 3409 
Q 3044 3113 2884 2869 
Q 2725 2625 2413 2481 
Q 2819 2388 3044 2092 
Q 3269 1797 3269 1353 
Q 3269 753 2831 336 
Q 2394 -81 1725 -81 
Q 1122 -81 723 278 
Q 325 638 269 1209 
z
" transform="scale(0.015625)"/>
       </defs>
       <use xlink:href="#ArialMT-13"/>
       <use xlink:href="#ArialMT-11" transform="translate(55.609375 0)"/>
       <use xlink:href="#ArialMT-16" transform="translate(83.390625 0)"/>
      </g>
     </g>
    </g>
    <g id="xtick_4">
     <g id="line2d_7">
      <path d="M 636.596063 355.221164 
L 636.596063 28.925391 
" clip-path="url(#p63f9354137)" style="fill: none; stroke: #cccccc; stroke-width: 0.8; stroke-linecap: round"/>
     </g>
     <g id="line2d_8"/>
     <g id="text_4">
      <!-- 0.4 -->
      <g style="fill: #262626" transform="translate(624.086063 371.825656) scale(0.18 -0.18)">
       <defs>
        <path id="ArialMT-17" d="M 2069 0 
L 2069 1097 
L 81 1097 
L 81 1613 
L 2172 4581 
L 2631 4581 
L 2631 1613 
L 3250 1613 
L 3250 1097 
L 2631 1097 
L 2631 0 
L 2069 0 
z
M 2069 1613 
L 2069 3678 
L 634 1613 
L 2069 1613 
z
" transform="scale(0.015625)"/>
       </defs>
       <use xlink:href="#ArialMT-13"/>
       <use xlink:href="#ArialMT-11" transform="translate(55.609375 0)"/>
       <use xlink:href="#ArialMT-17" transform="translate(83.390625 0)"/>
      </g>
     </g>
    </g>
    <g id="xtick_5">
     <g id="line2d_9">
      <path d="M 790.957913 355.221164 
L 790.957913 28.925391 
" clip-path="url(#p63f9354137)" style="fill: none; stroke: #cccccc; stroke-width: 0.8; stroke-linecap: round"/>
     </g>
     <g id="line2d_10"/>
     <g id="text_5">
      <!-- 0.5 -->
      <g style="fill: #262626" transform="translate(778.447913 371.825656) scale(0.18 -0.18)">
       <defs>
        <path id="ArialMT-18" d="M 266 1200 
L 856 1250 
Q 922 819 1161 601 
Q 1400 384 1738 384 
Q 2144 384 2425 690 
Q 2706 997 2706 1503 
Q 2706 1984 2436 2262 
Q 2166 2541 1728 2541 
Q 1456 2541 1237 2417 
Q 1019 2294 894 2097 
L 366 2166 
L 809 4519 
L 3088 4519 
L 3088 3981 
L 1259 3981 
L 1013 2750 
Q 1425 3038 1878 3038 
Q 2478 3038 2890 2622 
Q 3303 2206 3303 1553 
Q 3303 931 2941 478 
Q 2500 -78 1738 -78 
Q 1113 -78 717 272 
Q 322 622 266 1200 
z
" transform="scale(0.015625)"/>
       </defs>
       <use xlink:href="#ArialMT-13"/>
       <use xlink:href="#ArialMT-11" transform="translate(55.609375 0)"/>
       <use xlink:href="#ArialMT-18" transform="translate(83.390625 0)"/>
      </g>
     </g>
    </g>
    <g id="text_6">
     <!-- Removed Neuron Fraction -->
     <g style="fill: #262626" transform="translate(331.06725 393.591867) scale(0.192 -0.192)">
      <defs>
       <path id="ArialMT-35" d="M 503 0 
L 503 4581 
L 2534 4581 
Q 3147 4581 3465 4457 
Q 3784 4334 3975 4021 
Q 4166 3709 4166 3331 
Q 4166 2844 3850 2509 
Q 3534 2175 2875 2084 
Q 3116 1969 3241 1856 
Q 3506 1613 3744 1247 
L 4541 0 
L 3778 0 
L 3172 953 
Q 2906 1366 2734 1584 
Q 2563 1803 2427 1890 
Q 2291 1978 2150 2013 
Q 2047 2034 1813 2034 
L 1109 2034 
L 1109 0 
L 503 0 
z
M 1109 2559 
L 2413 2559 
Q 2828 2559 3062 2645 
Q 3297 2731 3419 2920 
Q 3541 3109 3541 3331 
Q 3541 3656 3305 3865 
Q 3069 4075 2559 4075 
L 1109 4075 
L 1109 2559 
z
" transform="scale(0.015625)"/>
       <path id="ArialMT-48" d="M 2694 1069 
L 3275 997 
Q 3138 488 2766 206 
Q 2394 -75 1816 -75 
Q 1088 -75 661 373 
Q 234 822 234 1631 
Q 234 2469 665 2931 
Q 1097 3394 1784 3394 
Q 2450 3394 2872 2941 
Q 3294 2488 3294 1666 
Q 3294 1616 3291 1516 
L 816 1516 
Q 847 969 1125 678 
Q 1403 388 1819 388 
Q 2128 388 2347 550 
Q 2566 713 2694 1069 
z
M 847 1978 
L 2700 1978 
Q 2663 2397 2488 2606 
Q 2219 2931 1791 2931 
Q 1403 2931 1139 2672 
Q 875 2413 847 1978 
z
" transform="scale(0.015625)"/>
       <path id="ArialMT-50" d="M 422 0 
L 422 3319 
L 925 3319 
L 925 2853 
Q 1081 3097 1340 3245 
Q 1600 3394 1931 3394 
Q 2300 3394 2536 3241 
Q 2772 3088 2869 2813 
Q 3263 3394 3894 3394 
Q 4388 3394 4653 3120 
Q 4919 2847 4919 2278 
L 4919 0 
L 4359 0 
L 4359 2091 
Q 4359 2428 4304 2576 
Q 4250 2725 4106 2815 
Q 3963 2906 3769 2906 
Q 3419 2906 3187 2673 
Q 2956 2441 2956 1928 
L 2956 0 
L 2394 0 
L 2394 2156 
Q 2394 2531 2256 2718 
Q 2119 2906 1806 2906 
Q 1569 2906 1367 2781 
Q 1166 2656 1075 2415 
Q 984 2175 984 1722 
L 984 0 
L 422 0 
z
" transform="scale(0.015625)"/>
       <path id="ArialMT-52" d="M 213 1659 
Q 213 2581 725 3025 
Q 1153 3394 1769 3394 
Q 2453 3394 2887 2945 
Q 3322 2497 3322 1706 
Q 3322 1066 3130 698 
Q 2938 331 2570 128 
Q 2203 -75 1769 -75 
Q 1072 -75 642 372 
Q 213 819 213 1659 
z
M 791 1659 
Q 791 1022 1069 705 
Q 1347 388 1769 388 
Q 2188 388 2466 706 
Q 2744 1025 2744 1678 
Q 2744 2294 2464 2611 
Q 2184 2928 1769 2928 
Q 1347 2928 1069 2612 
Q 791 2297 791 1659 
z
" transform="scale(0.015625)"/>
       <path id="ArialMT-59" d="M 1344 0 
L 81 3319 
L 675 3319 
L 1388 1331 
Q 1503 1009 1600 663 
Q 1675 925 1809 1294 
L 2547 3319 
L 3125 3319 
L 1869 0 
L 1344 0 
z
" transform="scale(0.015625)"/>
       <path id="ArialMT-47" d="M 2575 0 
L 2575 419 
Q 2259 -75 1647 -75 
Q 1250 -75 917 144 
Q 584 363 401 755 
Q 219 1147 219 1656 
Q 219 2153 384 2558 
Q 550 2963 881 3178 
Q 1213 3394 1622 3394 
Q 1922 3394 2156 3267 
Q 2391 3141 2538 2938 
L 2538 4581 
L 3097 4581 
L 3097 0 
L 2575 0 
z
M 797 1656 
Q 797 1019 1065 703 
Q 1334 388 1700 388 
Q 2069 388 2326 689 
Q 2584 991 2584 1609 
Q 2584 2291 2321 2609 
Q 2059 2928 1675 2928 
Q 1300 2928 1048 2622 
Q 797 2316 797 1656 
z
" transform="scale(0.015625)"/>
       <path id="ArialMT-3" transform="scale(0.015625)"/>
       <path id="ArialMT-31" d="M 488 0 
L 488 4581 
L 1109 4581 
L 3516 984 
L 3516 4581 
L 4097 4581 
L 4097 0 
L 3475 0 
L 1069 3600 
L 1069 0 
L 488 0 
z
" transform="scale(0.015625)"/>
       <path id="ArialMT-58" d="M 2597 0 
L 2597 488 
Q 2209 -75 1544 -75 
Q 1250 -75 995 37 
Q 741 150 617 320 
Q 494 491 444 738 
Q 409 903 409 1263 
L 409 3319 
L 972 3319 
L 972 1478 
Q 972 1038 1006 884 
Q 1059 663 1231 536 
Q 1403 409 1656 409 
Q 1909 409 2131 539 
Q 2353 669 2445 892 
Q 2538 1116 2538 1541 
L 2538 3319 
L 3100 3319 
L 3100 0 
L 2597 0 
z
" transform="scale(0.015625)"/>
       <path id="ArialMT-55" d="M 416 0 
L 416 3319 
L 922 3319 
L 922 2816 
Q 1116 3169 1280 3281 
Q 1444 3394 1641 3394 
Q 1925 3394 2219 3213 
L 2025 2691 
Q 1819 2813 1613 2813 
Q 1428 2813 1281 2702 
Q 1134 2591 1072 2394 
Q 978 2094 978 1738 
L 978 0 
L 416 0 
z
" transform="scale(0.015625)"/>
       <path id="ArialMT-51" d="M 422 0 
L 422 3319 
L 928 3319 
L 928 2847 
Q 1294 3394 1984 3394 
Q 2284 3394 2536 3286 
Q 2788 3178 2913 3003 
Q 3038 2828 3088 2588 
Q 3119 2431 3119 2041 
L 3119 0 
L 2556 0 
L 2556 2019 
Q 2556 2363 2490 2533 
Q 2425 2703 2258 2804 
Q 2091 2906 1866 2906 
Q 1506 2906 1245 2678 
Q 984 2450 984 1813 
L 984 0 
L 422 0 
z
" transform="scale(0.015625)"/>
       <path id="ArialMT-29" d="M 525 0 
L 525 4581 
L 3616 4581 
L 3616 4041 
L 1131 4041 
L 1131 2622 
L 3281 2622 
L 3281 2081 
L 1131 2081 
L 1131 0 
L 525 0 
z
" transform="scale(0.015625)"/>
       <path id="ArialMT-44" d="M 2588 409 
Q 2275 144 1986 34 
Q 1697 -75 1366 -75 
Q 819 -75 525 192 
Q 231 459 231 875 
Q 231 1119 342 1320 
Q 453 1522 633 1644 
Q 813 1766 1038 1828 
Q 1203 1872 1538 1913 
Q 2219 1994 2541 2106 
Q 2544 2222 2544 2253 
Q 2544 2597 2384 2738 
Q 2169 2928 1744 2928 
Q 1347 2928 1158 2789 
Q 969 2650 878 2297 
L 328 2372 
Q 403 2725 575 2942 
Q 747 3159 1072 3276 
Q 1397 3394 1825 3394 
Q 2250 3394 2515 3294 
Q 2781 3194 2906 3042 
Q 3031 2891 3081 2659 
Q 3109 2516 3109 2141 
L 3109 1391 
Q 3109 606 3145 398 
Q 3181 191 3288 0 
L 2700 0 
Q 2613 175 2588 409 
z
M 2541 1666 
Q 2234 1541 1622 1453 
Q 1275 1403 1131 1340 
Q 988 1278 909 1158 
Q 831 1038 831 891 
Q 831 666 1001 516 
Q 1172 366 1500 366 
Q 1825 366 2078 508 
Q 2331 650 2450 897 
Q 2541 1088 2541 1459 
L 2541 1666 
z
" transform="scale(0.015625)"/>
       <path id="ArialMT-46" d="M 2588 1216 
L 3141 1144 
Q 3050 572 2676 248 
Q 2303 -75 1759 -75 
Q 1078 -75 664 370 
Q 250 816 250 1647 
Q 250 2184 428 2587 
Q 606 2991 970 3192 
Q 1334 3394 1763 3394 
Q 2303 3394 2647 3120 
Q 2991 2847 3088 2344 
L 2541 2259 
Q 2463 2594 2264 2762 
Q 2066 2931 1784 2931 
Q 1359 2931 1093 2626 
Q 828 2322 828 1663 
Q 828 994 1084 691 
Q 1341 388 1753 388 
Q 2084 388 2306 591 
Q 2528 794 2588 1216 
z
" transform="scale(0.015625)"/>
       <path id="ArialMT-57" d="M 1650 503 
L 1731 6 
Q 1494 -44 1306 -44 
Q 1000 -44 831 53 
Q 663 150 594 308 
Q 525 466 525 972 
L 525 2881 
L 113 2881 
L 113 3319 
L 525 3319 
L 525 4141 
L 1084 4478 
L 1084 3319 
L 1650 3319 
L 1650 2881 
L 1084 2881 
L 1084 941 
Q 1084 700 1114 631 
Q 1144 563 1211 522 
Q 1278 481 1403 481 
Q 1497 481 1650 503 
z
" transform="scale(0.015625)"/>
       <path id="ArialMT-4c" d="M 425 3934 
L 425 4581 
L 988 4581 
L 988 3934 
L 425 3934 
z
M 425 0 
L 425 3319 
L 988 3319 
L 988 0 
L 425 0 
z
" transform="scale(0.015625)"/>
      </defs>
      <use xlink:href="#ArialMT-35"/>
      <use xlink:href="#ArialMT-48" transform="translate(72.21875 0)"/>
      <use xlink:href="#ArialMT-50" transform="translate(127.828125 0)"/>
      <use xlink:href="#ArialMT-52" transform="translate(211.125 0)"/>
      <use xlink:href="#ArialMT-59" transform="translate(266.734375 0)"/>
      <use xlink:href="#ArialMT-48" transform="translate(316.734375 0)"/>
      <use xlink:href="#ArialMT-47" transform="translate(372.34375 0)"/>
      <use xlink:href="#ArialMT-3" transform="translate(427.953125 0)"/>
      <use xlink:href="#ArialMT-31" transform="translate(455.734375 0)"/>
      <use xlink:href="#ArialMT-48" transform="translate(527.953125 0)"/>
      <use xlink:href="#ArialMT-58" transform="translate(583.5625 0)"/>
      <use xlink:href="#ArialMT-55" transform="translate(639.171875 0)"/>
      <use xlink:href="#ArialMT-52" transform="translate(672.46875 0)"/>
      <use xlink:href="#ArialMT-51" transform="translate(728.078125 0)"/>
      <use xlink:href="#ArialMT-3" transform="translate(783.6875 0)"/>
      <use xlink:href="#ArialMT-29" transform="translate(811.46875 0)"/>
      <use xlink:href="#ArialMT-55" transform="translate(872.546875 0)"/>
      <use xlink:href="#ArialMT-44" transform="translate(905.84375 0)"/>
      <use xlink:href="#ArialMT-46" transform="translate(961.453125 0)"/>
      <use xlink:href="#ArialMT-57" transform="translate(1011.453125 0)"/>
      <use xlink:href="#ArialMT-4c" transform="translate(1039.234375 0)"/>
      <use xlink:href="#ArialMT-52" transform="translate(1061.453125 0)"/>
      <use xlink:href="#ArialMT-51" transform="translate(1117.0625 0)"/>
     </g>
    </g>
   </g>
   <g id="matplotlib.axis_2">
    <g id="ytick_1">
     <g id="line2d_11">
      <path d="M 57.739125 355.221164 
L 829.548375 355.221164 
" clip-path="url(#p63f9354137)" style="fill: none; stroke: #cccccc; stroke-width: 0.8; stroke-linecap: round"/>
     </g>
     <g id="line2d_12"/>
     <g id="text_7">
      <!-- 0.5 -->
      <g style="fill: #262626" transform="translate(29.219125 361.77341) scale(0.18 -0.18)">
       <use xlink:href="#ArialMT-13"/>
       <use xlink:href="#ArialMT-11" transform="translate(55.609375 0)"/>
       <use xlink:href="#ArialMT-18" transform="translate(83.390625 0)"/>
      </g>
     </g>
    </g>
    <g id="ytick_2">
     <g id="line2d_13">
      <path d="M 57.739125 289.962009 
L 829.548375 289.962009 
" clip-path="url(#p63f9354137)" style="fill: none; stroke: #cccccc; stroke-width: 0.8; stroke-linecap: round"/>
     </g>
     <g id="line2d_14"/>
     <g id="text_8">
      <!-- 0.6 -->
      <g style="fill: #262626" transform="translate(29.219125 296.514255) scale(0.18 -0.18)">
       <defs>
        <path id="ArialMT-19" d="M 3184 3459 
L 2625 3416 
Q 2550 3747 2413 3897 
Q 2184 4138 1850 4138 
Q 1581 4138 1378 3988 
Q 1113 3794 959 3422 
Q 806 3050 800 2363 
Q 1003 2672 1297 2822 
Q 1591 2972 1913 2972 
Q 2475 2972 2870 2558 
Q 3266 2144 3266 1488 
Q 3266 1056 3080 686 
Q 2894 316 2569 119 
Q 2244 -78 1831 -78 
Q 1128 -78 684 439 
Q 241 956 241 2144 
Q 241 3472 731 4075 
Q 1159 4600 1884 4600 
Q 2425 4600 2770 4297 
Q 3116 3994 3184 3459 
z
M 888 1484 
Q 888 1194 1011 928 
Q 1134 663 1356 523 
Q 1578 384 1822 384 
Q 2178 384 2434 671 
Q 2691 959 2691 1453 
Q 2691 1928 2437 2201 
Q 2184 2475 1800 2475 
Q 1419 2475 1153 2201 
Q 888 1928 888 1484 
z
" transform="scale(0.015625)"/>
       </defs>
       <use xlink:href="#ArialMT-13"/>
       <use xlink:href="#ArialMT-11" transform="translate(55.609375 0)"/>
       <use xlink:href="#ArialMT-19" transform="translate(83.390625 0)"/>
      </g>
     </g>
    </g>
    <g id="ytick_3">
     <g id="line2d_15">
      <path d="M 57.739125 224.702855 
L 829.548375 224.702855 
" clip-path="url(#p63f9354137)" style="fill: none; stroke: #cccccc; stroke-width: 0.8; stroke-linecap: round"/>
     </g>
     <g id="line2d_16"/>
     <g id="text_9">
      <!-- 0.7 -->
      <g style="fill: #262626" transform="translate(29.219125 231.255101) scale(0.18 -0.18)">
       <defs>
        <path id="ArialMT-1a" d="M 303 3981 
L 303 4522 
L 3269 4522 
L 3269 4084 
Q 2831 3619 2401 2847 
Q 1972 2075 1738 1259 
Q 1569 684 1522 0 
L 944 0 
Q 953 541 1156 1306 
Q 1359 2072 1739 2783 
Q 2119 3494 2547 3981 
L 303 3981 
z
" transform="scale(0.015625)"/>
       </defs>
       <use xlink:href="#ArialMT-13"/>
       <use xlink:href="#ArialMT-11" transform="translate(55.609375 0)"/>
       <use xlink:href="#ArialMT-1a" transform="translate(83.390625 0)"/>
      </g>
     </g>
    </g>
    <g id="ytick_4">
     <g id="line2d_17">
      <path d="M 57.739125 159.4437 
L 829.548375 159.4437 
" clip-path="url(#p63f9354137)" style="fill: none; stroke: #cccccc; stroke-width: 0.8; stroke-linecap: round"/>
     </g>
     <g id="line2d_18"/>
     <g id="text_10">
      <!-- 0.8 -->
      <g style="fill: #262626" transform="translate(29.219125 165.995946) scale(0.18 -0.18)">
       <defs>
        <path id="ArialMT-1b" d="M 1131 2484 
Q 781 2613 612 2850 
Q 444 3088 444 3419 
Q 444 3919 803 4259 
Q 1163 4600 1759 4600 
Q 2359 4600 2725 4251 
Q 3091 3903 3091 3403 
Q 3091 3084 2923 2848 
Q 2756 2613 2416 2484 
Q 2838 2347 3058 2040 
Q 3278 1734 3278 1309 
Q 3278 722 2862 322 
Q 2447 -78 1769 -78 
Q 1091 -78 675 323 
Q 259 725 259 1325 
Q 259 1772 486 2073 
Q 713 2375 1131 2484 
z
M 1019 3438 
Q 1019 3113 1228 2906 
Q 1438 2700 1772 2700 
Q 2097 2700 2305 2904 
Q 2513 3109 2513 3406 
Q 2513 3716 2298 3927 
Q 2084 4138 1766 4138 
Q 1444 4138 1231 3931 
Q 1019 3725 1019 3438 
z
M 838 1322 
Q 838 1081 952 856 
Q 1066 631 1291 507 
Q 1516 384 1775 384 
Q 2178 384 2440 643 
Q 2703 903 2703 1303 
Q 2703 1709 2433 1975 
Q 2163 2241 1756 2241 
Q 1359 2241 1098 1978 
Q 838 1716 838 1322 
z
" transform="scale(0.015625)"/>
       </defs>
       <use xlink:href="#ArialMT-13"/>
       <use xlink:href="#ArialMT-11" transform="translate(55.609375 0)"/>
       <use xlink:href="#ArialMT-1b" transform="translate(83.390625 0)"/>
      </g>
     </g>
    </g>
    <g id="ytick_5">
     <g id="line2d_19">
      <path d="M 57.739125 94.184545 
L 829.548375 94.184545 
" clip-path="url(#p63f9354137)" style="fill: none; stroke: #cccccc; stroke-width: 0.8; stroke-linecap: round"/>
     </g>
     <g id="line2d_20"/>
     <g id="text_11">
      <!-- 0.9 -->
      <g style="fill: #262626" transform="translate(29.219125 100.736791) scale(0.18 -0.18)">
       <defs>
        <path id="ArialMT-1c" d="M 350 1059 
L 891 1109 
Q 959 728 1153 556 
Q 1347 384 1650 384 
Q 1909 384 2104 503 
Q 2300 622 2425 820 
Q 2550 1019 2634 1356 
Q 2719 1694 2719 2044 
Q 2719 2081 2716 2156 
Q 2547 1888 2255 1720 
Q 1963 1553 1622 1553 
Q 1053 1553 659 1965 
Q 266 2378 266 3053 
Q 266 3750 677 4175 
Q 1088 4600 1706 4600 
Q 2153 4600 2523 4359 
Q 2894 4119 3086 3673 
Q 3278 3228 3278 2384 
Q 3278 1506 3087 986 
Q 2897 466 2520 194 
Q 2144 -78 1638 -78 
Q 1100 -78 759 220 
Q 419 519 350 1059 
z
M 2653 3081 
Q 2653 3566 2395 3850 
Q 2138 4134 1775 4134 
Q 1400 4134 1122 3828 
Q 844 3522 844 3034 
Q 844 2597 1108 2323 
Q 1372 2050 1759 2050 
Q 2150 2050 2401 2323 
Q 2653 2597 2653 3081 
z
" transform="scale(0.015625)"/>
       </defs>
       <use xlink:href="#ArialMT-13"/>
       <use xlink:href="#ArialMT-11" transform="translate(55.609375 0)"/>
       <use xlink:href="#ArialMT-1c" transform="translate(83.390625 0)"/>
      </g>
     </g>
    </g>
    <g id="ytick_6">
     <g id="line2d_21">
      <path d="M 57.739125 28.925391 
L 829.548375 28.925391 
" clip-path="url(#p63f9354137)" style="fill: none; stroke: #cccccc; stroke-width: 0.8; stroke-linecap: round"/>
     </g>
     <g id="line2d_22"/>
     <g id="text_12">
      <!-- 1.0 -->
      <g style="fill: #262626" transform="translate(29.219125 35.477637) scale(0.18 -0.18)">
       <use xlink:href="#ArialMT-14"/>
       <use xlink:href="#ArialMT-11" transform="translate(55.609375 0)"/>
       <use xlink:href="#ArialMT-13" transform="translate(83.390625 0)"/>
      </g>
     </g>
    </g>
    <g id="text_13">
     <!-- Firing Rate R² -->
     <g style="fill: #262626" transform="translate(21.178125 251.816777) rotate(-90) scale(0.192 -0.192)">
      <defs>
       <path id="ArialMT-4a" d="M 319 -275 
L 866 -356 
Q 900 -609 1056 -725 
Q 1266 -881 1628 -881 
Q 2019 -881 2231 -725 
Q 2444 -569 2519 -288 
Q 2563 -116 2559 434 
Q 2191 0 1641 0 
Q 956 0 581 494 
Q 206 988 206 1678 
Q 206 2153 378 2554 
Q 550 2956 876 3175 
Q 1203 3394 1644 3394 
Q 2231 3394 2613 2919 
L 2613 3319 
L 3131 3319 
L 3131 450 
Q 3131 -325 2973 -648 
Q 2816 -972 2473 -1159 
Q 2131 -1347 1631 -1347 
Q 1038 -1347 672 -1080 
Q 306 -813 319 -275 
z
M 784 1719 
Q 784 1066 1043 766 
Q 1303 466 1694 466 
Q 2081 466 2343 764 
Q 2606 1063 2606 1700 
Q 2606 2309 2336 2618 
Q 2066 2928 1684 2928 
Q 1309 2928 1046 2623 
Q 784 2319 784 1719 
z
" transform="scale(0.015625)"/>
       <path id="ArialMT-f0" d="M 78 2291 
Q 97 2469 225 2647 
Q 422 2916 872 3242 
Q 1322 3569 1406 3663 
Q 1522 3791 1522 3925 
Q 1522 4075 1412 4172 
Q 1303 4269 1091 4269 
Q 884 4269 782 4195 
Q 681 4122 616 3913 
L 144 3963 
Q 234 4309 457 4473 
Q 681 4638 1100 4638 
Q 1572 4638 1792 4453 
Q 2013 4269 2013 4003 
Q 2013 3741 1828 3506 
Q 1688 3331 1188 2972 
Q 928 2781 819 2669 
L 2025 2669 
L 2025 2291 
L 78 2291 
z
" transform="scale(0.015625)"/>
      </defs>
      <use xlink:href="#ArialMT-29"/>
      <use xlink:href="#ArialMT-4c" transform="translate(61.078125 0)"/>
      <use xlink:href="#ArialMT-55" transform="translate(83.296875 0)"/>
      <use xlink:href="#ArialMT-4c" transform="translate(116.59375 0)"/>
      <use xlink:href="#ArialMT-51" transform="translate(138.8125 0)"/>
      <use xlink:href="#ArialMT-4a" transform="translate(194.421875 0)"/>
      <use xlink:href="#ArialMT-3" transform="translate(250.03125 0)"/>
      <use xlink:href="#ArialMT-35" transform="translate(277.8125 0)"/>
      <use xlink:href="#ArialMT-44" transform="translate(350.03125 0)"/>
      <use xlink:href="#ArialMT-57" transform="translate(405.640625 0)"/>
      <use xlink:href="#ArialMT-48" transform="translate(433.421875 0)"/>
      <use xlink:href="#ArialMT-3" transform="translate(489.03125 0)"/>
      <use xlink:href="#ArialMT-35" transform="translate(516.8125 0)"/>
      <use xlink:href="#ArialMT-f0" transform="translate(589.03125 0)"/>
     </g>
    </g>
   </g>
   <g id="line2d_23">
    <path d="M 96.329588 45.468586 
L 173.510513 64.138578 
L 250.691438 103.814839 
L 327.872363 128.356849 
L 405.053288 139.416971 
L 482.234213 177.6373 
L 559.415138 180.216342 
L 636.596063 228.752185 
L 713.776988 304.768006 
L 790.957913 332.819001 
" clip-path="url(#p63f9354137)" style="fill: none; stroke: #457b9d; stroke-width: 1.5; stroke-linecap: round"/>
    <defs>
     <path id="md2ddbe281e" d="M 0 2 
C 0.530406 2 1.03916 1.789267 1.414214 1.414214 
C 1.789267 1.03916 2 0.530406 2 0 
C 2 -0.530406 1.789267 -1.03916 1.414214 -1.414214 
C 1.03916 -1.789267 0.530406 -2 0 -2 
C -0.530406 -2 -1.03916 -1.789267 -1.414214 -1.414214 
C -1.789267 -1.03916 -2 -0.530406 -2 0 
C -2 0.530406 -1.789267 1.03916 -1.414214 1.414214 
C -1.03916 1.789267 -0.530406 2 0 2 
z
" style="stroke: #457b9d"/>
    </defs>
    <g clip-path="url(#p63f9354137)">
     <use xlink:href="#md2ddbe281e" x="96.329588" y="45.468586" style="fill: #457b9d; stroke: #457b9d"/>
     <use xlink:href="#md2ddbe281e" x="173.510513" y="64.138578" style="fill: #457b9d; stroke: #457b9d"/>
     <use xlink:href="#md2ddbe281e" x="250.691438" y="103.814839" style="fill: #457b9d; stroke: #457b9d"/>
     <use xlink:href="#md2ddbe281e" x="327.872363" y="128.356849" style="fill: #457b9d; stroke: #457b9d"/>
     <use xlink:href="#md2ddbe281e" x="405.053288" y="139.416971" style="fill: #457b9d; stroke: #457b9d"/>
     <use xlink:href="#md2ddbe281e" x="482.234213" y="177.6373" style="fill: #457b9d; stroke: #457b9d"/>
     <use xlink:href="#md2ddbe281e" x="559.415138" y="180.216342" style="fill: #457b9d; stroke: #457b9d"/>
     <use xlink:href="#md2ddbe281e" x="636.596063" y="228.752185" style="fill: #457b9d; stroke: #457b9d"/>
     <use xlink:href="#md2ddbe281e" x="713.776988" y="304.768006" style="fill: #457b9d; stroke: #457b9d"/>
     <use xlink:href="#md2ddbe281e" x="790.957913" y="332.819001" style="fill: #457b9d; stroke: #457b9d"/>
    </g>
   </g>
   <g id="line2d_24">
    <path d="M 96.329588 51.781104 
L 173.510513 75.552404 
L 250.691438 113.330929 
L 327.872363 144.149565 
L 405.053288 158.231185 
L 482.234213 200.659424 
L 559.415138 207.134438 
L 636.596063 248.768473 
L 713.776988 312.016341 
L 790.957913 342.834324 
" clip-path="url(#p63f9354137)" style="fill: none; stroke-dasharray: 5.55,2.4; stroke-dashoffset: 0; stroke: #457b9d; stroke-width: 1.5"/>
    <defs>
     <path id="me6281241f1" d="M -2 2 
L 2 2 
L 2 -2 
L -2 -2 
z
" style="stroke: #457b9d; stroke-linejoin: miter"/>
    </defs>
    <g clip-path="url(#p63f9354137)">
     <use xlink:href="#me6281241f1" x="96.329588" y="51.781104" style="fill: #457b9d; stroke: #457b9d; stroke-linejoin: miter"/>
     <use xlink:href="#me6281241f1" x="173.510513" y="75.552404" style="fill: #457b9d; stroke: #457b9d; stroke-linejoin: miter"/>
     <use xlink:href="#me6281241f1" x="250.691438" y="113.330929" style="fill: #457b9d; stroke: #457b9d; stroke-linejoin: miter"/>
     <use xlink:href="#me6281241f1" x="327.872363" y="144.149565" style="fill: #457b9d; stroke: #457b9d; stroke-linejoin: miter"/>
     <use xlink:href="#me6281241f1" x="405.053288" y="158.231185" style="fill: #457b9d; stroke: #457b9d; stroke-linejoin: miter"/>
     <use xlink:href="#me6281241f1" x="482.234213" y="200.659424" style="fill: #457b9d; stroke: #457b9d; stroke-linejoin: miter"/>
     <use xlink:href="#me6281241f1" x="559.415138" y="207.134438" style="fill: #457b9d; stroke: #457b9d; stroke-linejoin: miter"/>
     <use xlink:href="#me6281241f1" x="636.596063" y="248.768473" style="fill: #457b9d; stroke: #457b9d; stroke-linejoin: miter"/>
     <use xlink:href="#me6281241f1" x="713.776988" y="312.016341" style="fill: #457b9d; stroke: #457b9d; stroke-linejoin: miter"/>
     <use xlink:href="#me6281241f1" x="790.957913" y="342.834324" style="fill: #457b9d; stroke: #457b9d; stroke-linejoin: miter"/>
    </g>
   </g>
   <g id="patch_3">
    <path d="M 57.739125 355.221164 
L 57.739125 28.925391 
" style="fill: none; stroke: #cccccc; stroke-linejoin: miter; stroke-linecap: square"/>
   </g>
   <g id="patch_4">
    <path d="M 829.548375 355.221164 
L 829.548375 28.925391 
" style="fill: none; stroke: #cccccc; stroke-linejoin: miter; stroke-linecap: square"/>
   </g>
   <g id="patch_5">
    <path d="M 57.739125 355.221164 
L 829.548375 355.221164 
" style="fill: none; stroke: #cccccc; stroke-linejoin: miter; stroke-linecap: square"/>
   </g>
   <g id="patch_6">
    <path d="M 57.739125 28.925391 
L 829.548375 28.925391 
" style="fill: none; stroke: #cccccc; stroke-linejoin: miter; stroke-linecap: square"/>
   </g>
   <g id="text_14">
    <!-- Robustness to Missing Neurons -->
    <g style="fill: #262626" transform="translate(291.1815 22.925391) scale(0.216 -0.216)">
     <defs>
      <path id="ArialMT-45" d="M 941 0 
L 419 0 
L 419 4581 
L 981 4581 
L 981 2947 
Q 1338 3394 1891 3394 
Q 2197 3394 2470 3270 
Q 2744 3147 2920 2923 
Q 3097 2700 3197 2384 
Q 3297 2069 3297 1709 
Q 3297 856 2875 390 
Q 2453 -75 1863 -75 
Q 1275 -75 941 416 
L 941 0 
z
M 934 1684 
Q 934 1088 1097 822 
Q 1363 388 1816 388 
Q 2184 388 2453 708 
Q 2722 1028 2722 1663 
Q 2722 2313 2464 2622 
Q 2206 2931 1841 2931 
Q 1472 2931 1203 2611 
Q 934 2291 934 1684 
z
" transform="scale(0.015625)"/>
      <path id="ArialMT-56" d="M 197 991 
L 753 1078 
Q 800 744 1014 566 
Q 1228 388 1613 388 
Q 2000 388 2187 545 
Q 2375 703 2375 916 
Q 2375 1106 2209 1216 
Q 2094 1291 1634 1406 
Q 1016 1563 777 1677 
Q 538 1791 414 1992 
Q 291 2194 291 2438 
Q 291 2659 392 2848 
Q 494 3038 669 3163 
Q 800 3259 1026 3326 
Q 1253 3394 1513 3394 
Q 1903 3394 2198 3281 
Q 2494 3169 2634 2976 
Q 2775 2784 2828 2463 
L 2278 2388 
Q 2241 2644 2061 2787 
Q 1881 2931 1553 2931 
Q 1166 2931 1000 2803 
Q 834 2675 834 2503 
Q 834 2394 903 2306 
Q 972 2216 1119 2156 
Q 1203 2125 1616 2013 
Q 2213 1853 2448 1751 
Q 2684 1650 2818 1456 
Q 2953 1263 2953 975 
Q 2953 694 2789 445 
Q 2625 197 2315 61 
Q 2006 -75 1616 -75 
Q 969 -75 630 194 
Q 291 463 197 991 
z
" transform="scale(0.015625)"/>
      <path id="ArialMT-30" d="M 475 0 
L 475 4581 
L 1388 4581 
L 2472 1338 
Q 2622 884 2691 659 
Q 2769 909 2934 1394 
L 4031 4581 
L 4847 4581 
L 4847 0 
L 4263 0 
L 4263 3834 
L 2931 0 
L 2384 0 
L 1059 3900 
L 1059 0 
L 475 0 
z
" transform="scale(0.015625)"/>
     </defs>
     <use xlink:href="#ArialMT-35"/>
     <use xlink:href="#ArialMT-52" transform="translate(72.21875 0)"/>
     <use xlink:href="#ArialMT-45" transform="translate(127.828125 0)"/>
     <use xlink:href="#ArialMT-58" transform="translate(183.4375 0)"/>
     <use xlink:href="#ArialMT-56" transform="translate(239.046875 0)"/>
     <use xlink:href="#ArialMT-57" transform="translate(289.046875 0)"/>
     <use xlink:href="#ArialMT-51" transform="translate(316.828125 0)"/>
     <use xlink:href="#ArialMT-48" transform="translate(372.4375 0)"/>
     <use xlink:href="#ArialMT-56" transform="translate(428.046875 0)"/>
     <use xlink:href="#ArialMT-56" transform="translate(478.046875 0)"/>
     <use xlink:href="#ArialMT-3" transform="translate(528.046875 0)"/>
     <use xlink:href="#ArialMT-57" transform="translate(555.828125 0)"/>
     <use xlink:href="#ArialMT-52" transform="translate(583.609375 0)"/>
     <use xlink:href="#ArialMT-3" transform="translate(639.21875 0)"/>
     <use xlink:href="#ArialMT-30" transform="translate(667 0)"/>
     <use xlink:href="#ArialMT-4c" transform="translate(750.296875 0)"/>
     <use xlink:href="#ArialMT-56" transform="translate(772.515625 0)"/>
     <use xlink:href="#ArialMT-56" transform="translate(822.515625 0)"/>
     <use xlink:href="#ArialMT-4c" transform="translate(872.515625 0)"/>
     <use xlink:href="#ArialMT-51" transform="translate(894.734375 0)"/>
     <use xlink:href="#ArialMT-4a" transform="translate(950.34375 0)"/>
     <use xlink:href="#ArialMT-3" transform="translate(1005.953125 0)"/>
     <use xlink:href="#ArialMT-31" transform="translate(1033.734375 0)"/>
     <use xlink:href="#ArialMT-48" transform="translate(1105.953125 0)"/>
     <use xlink:href="#ArialMT-58" transform="translate(1161.5625 0)"/>
     <use xlink:href="#ArialMT-55" transform="translate(1217.171875 0)"/>
     <use xlink:href="#ArialMT-52" transform="translate(1250.46875 0)"/>
     <use xlink:href="#ArialMT-51" transform="translate(1306.078125 0)"/>
     <use xlink:href="#ArialMT-56" transform="translate(1361.6875 0)"/>
    </g>
   </g>
   <g id="legend_1">
    <g id="line2d_25">
     <path d="M 75.019125 299.561414 
L 94.219125 299.561414 
L 113.419125 299.561414 
" style="fill: none; stroke: #404040; stroke-width: 2; stroke-linecap: round"/>
     <defs>
      <path id="m2cc338a0f2" d="M 0 5 
C 1.326016 5 2.597899 4.473168 3.535534 3.535534 
C 4.473168 2.597899 5 1.326016 5 0 
C 5 -1.326016 4.473168 -2.597899 3.535534 -3.535534 
C 2.597899 -4.473168 1.326016 -5 0 -5 
C -1.326016 -5 -2.597899 -4.473168 -3.535534 -3.535534 
C -4.473168 -2.597899 -5 -1.326016 -5 0 
C -5 1.326016 -4.473168 2.597899 -3.535534 3.535534 
C -2.597899 4.473168 -1.326016 5 0 5 
z
" style="stroke: #404040"/>
     </defs>
     <g>
      <use xlink:href="#m2cc338a0f2" x="94.219125" y="299.561414" style="fill: #404040; stroke: #404040"/>
     </g>
    </g>
    <g id="text_15">
     <!-- Activity -->
     <g style="fill: #262626" transform="translate(128.779125 306.281414) scale(0.192 -0.192)">
      <defs>
       <path id="ArialMT-24" d="M -9 0 
L 1750 4581 
L 2403 4581 
L 4278 0 
L 3588 0 
L 3053 1388 
L 1138 1388 
L 634 0 
L -9 0 
z
M 1313 1881 
L 2866 1881 
L 2388 3150 
Q 2169 3728 2063 4100 
Q 1975 3659 1816 3225 
L 1313 1881 
z
" transform="scale(0.015625)"/>
       <path id="ArialMT-5c" d="M 397 -1278 
L 334 -750 
Q 519 -800 656 -800 
Q 844 -800 956 -737 
Q 1069 -675 1141 -563 
Q 1194 -478 1313 -144 
Q 1328 -97 1363 -6 
L 103 3319 
L 709 3319 
L 1400 1397 
Q 1534 1031 1641 628 
Q 1738 1016 1872 1384 
L 2581 3319 
L 3144 3319 
L 1881 -56 
Q 1678 -603 1566 -809 
Q 1416 -1088 1222 -1217 
Q 1028 -1347 759 -1347 
Q 597 -1347 397 -1278 
z
" transform="scale(0.015625)"/>
      </defs>
      <use xlink:href="#ArialMT-24"/>
      <use xlink:href="#ArialMT-46" transform="translate(66.703125 0)"/>
      <use xlink:href="#ArialMT-57" transform="translate(116.703125 0)"/>
      <use xlink:href="#ArialMT-4c" transform="translate(144.484375 0)"/>
      <use xlink:href="#ArialMT-59" transform="translate(166.703125 0)"/>
      <use xlink:href="#ArialMT-4c" transform="translate(216.703125 0)"/>
      <use xlink:href="#ArialMT-57" transform="translate(238.921875 0)"/>
      <use xlink:href="#ArialMT-5c" transform="translate(266.703125 0)"/>
     </g>
    </g>
    <g id="line2d_26">
     <path d="M 75.019125 327.180539 
L 94.219125 327.180539 
L 113.419125 327.180539 
" style="fill: none; stroke-dasharray: 7.4,3.2; stroke-dashoffset: 0; stroke: #404040; stroke-width: 2"/>
     <defs>
      <path id="mb53678e9b7" d="M -5 5 
L 5 5 
L 5 -5 
L -5 -5 
z
" style="stroke: #404040; stroke-linejoin: miter"/>
     </defs>
     <g>
      <use xlink:href="#mb53678e9b7" x="94.219125" y="327.180539" style="fill: #404040; stroke: #404040; stroke-linejoin: miter"/>
     </g>
    </g>
    <g id="text_16">
     <!-- Fluctuation -->
     <g style="fill: #262626" transform="translate(128.779125 333.900539) scale(0.192 -0.192)">
      <defs>
       <path id="ArialMT-4f" d="M 409 0 
L 409 4581 
L 972 4581 
L 972 0 
L 409 0 
z
" transform="scale(0.015625)"/>
      </defs>
      <use xlink:href="#ArialMT-29"/>
      <use xlink:href="#ArialMT-4f" transform="translate(61.078125 0)"/>
      <use xlink:href="#ArialMT-58" transform="translate(83.296875 0)"/>
      <use xlink:href="#ArialMT-46" transform="translate(138.90625 0)"/>
      <use xlink:href="#ArialMT-57" transform="translate(188.90625 0)"/>
      <use xlink:href="#ArialMT-58" transform="translate(216.6875 0)"/>
      <use xlink:href="#ArialMT-44" transform="translate(272.296875 0)"/>
      <use xlink:href="#ArialMT-57" transform="translate(327.90625 0)"/>
      <use xlink:href="#ArialMT-4c" transform="translate(355.6875 0)"/>
      <use xlink:href="#ArialMT-52" transform="translate(377.90625 0)"/>
      <use xlink:href="#ArialMT-51" transform="translate(433.515625 0)"/>
     </g>
    </g>
   </g>
  </g>
 </g>
 <defs>
  <clipPath id="p63f9354137">
   <rect x="57.739125" y="28.925391" width="771.80925" height="326.295773"/>
  </clipPath>
 </defs>
</svg>
