<?xml version="1.0" encoding="utf-8" standalone="no"?>
<!DOCTYPE svg PUBLIC "-//W3C//DTD SVG 1.1//EN"
  "http://www.w3.org/Graphics/SVG/1.1/DTD/svg11.dtd">
<svg xmlns:xlink="http://www.w3.org/1999/xlink" width="451.197937pt" height="299.088pt" viewBox="0 0 451.197937 299.088" xmlns="http://www.w3.org/2000/svg" version="1.1">
 <metadata>
  <rdf:RDF xmlns:dc="http://purl.org/dc/elements/1.1/" xmlns:cc="http://creativecommons.org/ns#" xmlns:rdf="http://www.w3.org/1999/02/22-rdf-syntax-ns#">
   <cc:Work>
    <dc:type rdf:resource="http://purl.org/dc/dcmitype/StillImage"/>
    <dc:date>2026-09-23T15:01:46.480305</dc:date>
    <dc:format>image/svg+xml</dc:format>
    <dc:creator>
     <cc:Agent>
      <dc:title>Matplotlib v3.11.0, https://matplotlib.org/</dc:title>
     </cc:Agent>
    </dc:creator>
   </cc:Work>
  </rdf:RDF>
 </metadata>
 <defs>
  <style type="text/css">*{stroke-linejoin: round; stroke-linecap: butt}</style>
 </defs>
 <g id="figure_1">
  <g id="patch_1">
   <path d="M 0 299.088 
L 451.197937 299.088 
L 451.197937 0 
L 0 0 
z
" style="fill: #ffffff"/>
  </g>
  <g id="axes_1">
   <g id="patch_2">
    <path d="M 76.41795 237.978 
L 431.47275 237.978 
L 431.47275 55.5332 
L 76.41795 55.5332 
z
" style="fill: #ffffff"/>
   </g>
   <g id="matplotlib.axis_1">
    <g id="xtick_1">
     <g id="line2d_1"/>
     <g id="text_1">
      <!-- 0 -->
      <g style="fill: #262626" transform="translate(72.242888 258.278) scale(0.168 -0.168)">
       <defs>
        <path id="SourceSans3-Regular-535" d="M 1594 -77 
Q 979 -77 630 476 
Q 282 1030 282 2054 
Q 282 3085 630 3622 
Q 979 4160 1594 4160 
Q 2202 4160 2550 3622 
Q 2899 3085 2899 2054 
Q 2899 1030 2550 476 
Q 2202 -77 1594 -77 
z
M 1594 346 
Q 1952 346 2169 752 
Q 2387 1158 2387 2054 
Q 2387 2950 2169 3344 
Q 1952 3738 1594 3738 
Q 1235 3738 1014 3344 
Q 794 2950 794 2054 
Q 794 1158 1014 752 
Q 1235 346 1594 346 
z
" transform="scale(0.015625)"/>
       </defs>
       <use xlink:href="#SourceSans3-Regular-535"/>
      </g>
     </g>
    </g>
    <g id="xtick_2">
     <g id="line2d_2"/>
     <g id="text_2">
      <!-- 20 -->
      <g style="fill: #262626" transform="translate(139.078785 258.278) scale(0.168 -0.168)">
       <defs>
        <path id="SourceSans3-Regular-537" d="M 256 0 
L 256 320 
Q 870 922 1299 1386 
Q 1728 1850 1952 2227 
Q 2176 2605 2176 2931 
Q 2176 3283 1984 3507 
Q 1792 3731 1402 3731 
Q 1146 3731 928 3587 
Q 710 3443 531 3238 
L 237 3526 
Q 493 3814 784 3987 
Q 1075 4160 1466 4160 
Q 2035 4160 2361 3830 
Q 2688 3501 2688 2963 
Q 2688 2566 2467 2176 
Q 2246 1786 1862 1357 
Q 1478 928 979 416 
Q 1146 429 1325 441 
Q 1504 454 1664 454 
L 2893 454 
L 2893 0 
L 256 0 
z
" transform="scale(0.015625)"/>
       </defs>
       <use xlink:href="#SourceSans3-Regular-537"/>
       <use xlink:href="#SourceSans3-Regular-535" transform="translate(49.703125 0)"/>
      </g>
     </g>
    </g>
    <g id="xtick_3">
     <g id="line2d_3"/>
     <g id="text_3">
      <!-- 40 -->
      <g style="fill: #262626" transform="translate(210.089745 258.278) scale(0.168 -0.168)">
       <defs>
        <path id="SourceSans3-Regular-539" d="M 666 1549 
L 1946 1549 
L 1946 2733 
Q 1946 2899 1958 3129 
Q 1971 3360 1978 3520 
L 1952 3520 
Q 1875 3373 1792 3232 
Q 1709 3091 1619 2944 
L 666 1549 
z
M 1946 0 
L 1946 1126 
L 109 1126 
L 109 1472 
L 1856 4083 
L 2445 4083 
L 2445 1549 
L 3002 1549 
L 3002 1126 
L 2445 1126 
L 2445 0 
L 1946 0 
z
" transform="scale(0.015625)"/>
       </defs>
       <use xlink:href="#SourceSans3-Regular-539"/>
       <use xlink:href="#SourceSans3-Regular-535" transform="translate(49.703125 0)"/>
      </g>
     </g>
    </g>
    <g id="xtick_4">
     <g id="line2d_4"/>
     <g id="text_4">
      <!-- 60 -->
      <g style="fill: #262626" transform="translate(281.100705 258.278) scale(0.168 -0.168)">
       <defs>
        <path id="SourceSans3-Regular-53b" d="M 1670 2099 
Q 1472 2099 1241 1971 
Q 1011 1843 819 1562 
Q 870 966 1097 652 
Q 1325 339 1715 339 
Q 2016 339 2221 585 
Q 2426 832 2426 1235 
Q 2426 1632 2237 1865 
Q 2048 2099 1670 2099 
z
M 1715 -77 
Q 1318 -77 998 140 
Q 678 358 492 796 
Q 307 1235 307 1888 
Q 307 2707 528 3206 
Q 749 3706 1104 3933 
Q 1459 4160 1862 4160 
Q 2195 4160 2435 4035 
Q 2675 3910 2848 3725 
L 2554 3398 
Q 2432 3546 2253 3632 
Q 2074 3718 1882 3718 
Q 1594 3718 1357 3555 
Q 1120 3392 969 3011 
Q 819 2630 806 1984 
Q 998 2221 1254 2358 
Q 1510 2496 1760 2496 
Q 2291 2496 2608 2179 
Q 2925 1862 2925 1235 
Q 2925 845 2758 550 
Q 2592 256 2320 89 
Q 2048 -77 1715 -77 
z
" transform="scale(0.015625)"/>
       </defs>
       <use xlink:href="#SourceSans3-Regular-53b"/>
       <use xlink:href="#SourceSans3-Regular-535" transform="translate(49.703125 0)"/>
      </g>
     </g>
    </g>
    <g id="xtick_5">
     <g id="line2d_5"/>
     <g id="text_5">
      <!-- 80 -->
      <g style="fill: #262626" transform="translate(352.111665 258.278) scale(0.168 -0.168)">
       <defs>
        <path id="SourceSans3-Regular-53d" d="M 1600 -77 
Q 1216 -77 915 67 
Q 614 211 438 467 
Q 262 723 262 1043 
Q 262 1312 374 1520 
Q 486 1728 662 1885 
Q 838 2042 1030 2144 
L 1030 2170 
Q 806 2330 633 2560 
Q 461 2790 461 3110 
Q 461 3424 614 3661 
Q 768 3898 1030 4029 
Q 1293 4160 1619 4160 
Q 2150 4160 2460 3853 
Q 2771 3546 2771 3072 
Q 2771 2861 2681 2672 
Q 2592 2483 2464 2332 
Q 2336 2182 2208 2086 
L 2208 2061 
Q 2394 1958 2554 1817 
Q 2714 1677 2816 1481 
Q 2918 1286 2918 1011 
Q 2918 710 2755 460 
Q 2592 211 2294 67 
Q 1997 -77 1600 -77 
z
M 1888 2227 
Q 2093 2413 2205 2617 
Q 2317 2822 2317 3046 
Q 2317 3347 2131 3558 
Q 1946 3770 1606 3770 
Q 1325 3770 1136 3590 
Q 947 3411 947 3110 
Q 947 2867 1078 2707 
Q 1210 2547 1427 2435 
Q 1645 2323 1888 2227 
z
M 1613 314 
Q 1971 314 2192 515 
Q 2413 717 2413 1030 
Q 2413 1293 2259 1459 
Q 2106 1626 1853 1747 
Q 1600 1869 1306 1984 
Q 1062 1824 899 1600 
Q 736 1376 736 1094 
Q 736 755 989 534 
Q 1242 314 1613 314 
z
" transform="scale(0.015625)"/>
       </defs>
       <use xlink:href="#SourceSans3-Regular-53d"/>
       <use xlink:href="#SourceSans3-Regular-535" transform="translate(49.703125 0)"/>
      </g>
     </g>
    </g>
    <g id="xtick_6">
     <g id="line2d_6"/>
     <g id="text_6">
      <!-- 100 -->
      <g style="fill: #262626" transform="translate(418.947563 258.278) scale(0.168 -0.168)">
       <defs>
        <path id="SourceSans3-Regular-536" d="M 506 0 
L 506 435 
L 1440 435 
L 1440 3443 
L 698 3443 
L 698 3782 
Q 979 3834 1187 3907 
Q 1395 3981 1562 4083 
L 1965 4083 
L 1965 435 
L 2810 435 
L 2810 0 
L 506 0 
z
" transform="scale(0.015625)"/>
       </defs>
       <use xlink:href="#SourceSans3-Regular-536"/>
       <use xlink:href="#SourceSans3-Regular-535" transform="translate(49.703125 0)"/>
       <use xlink:href="#SourceSans3-Regular-535" transform="translate(99.40625 0)"/>
      </g>
     </g>
    </g>
    <g id="text_7">
     <!-- PCA Component -->
     <g style="fill: #262626" transform="translate(191.628834 285.9548) scale(0.182 -0.182)">
      <defs>
       <path id="SourceSans3-Regular-11" d="M 576 0 
L 576 4198 
L 1773 4198 
Q 2246 4198 2598 4083 
Q 2950 3968 3148 3696 
Q 3347 3424 3347 2963 
Q 3347 2304 2918 1984 
Q 2490 1664 1798 1664 
L 1107 1664 
L 1107 0 
L 576 0 
z
M 1107 2099 
L 1734 2099 
Q 2285 2099 2550 2307 
Q 2816 2515 2816 2963 
Q 2816 3418 2537 3594 
Q 2259 3770 1709 3770 
L 1107 3770 
L 1107 2099 
z
" transform="scale(0.015625)"/>
       <path id="SourceSans3-Regular-4" d="M 2170 -77 
Q 1645 -77 1229 182 
Q 813 442 573 928 
Q 333 1414 333 2099 
Q 333 2778 576 3264 
Q 819 3750 1241 4012 
Q 1664 4275 2195 4275 
Q 2573 4275 2870 4124 
Q 3168 3974 3347 3757 
L 3059 3430 
Q 2893 3610 2678 3709 
Q 2464 3808 2202 3808 
Q 1811 3808 1513 3600 
Q 1216 3392 1049 3014 
Q 883 2637 883 2112 
Q 883 1587 1046 1200 
Q 1210 813 1507 601 
Q 1805 390 2208 390 
Q 2502 390 2736 502 
Q 2970 614 3168 832 
L 3443 525 
Q 3187 237 2883 80 
Q 2579 -77 2170 -77 
z
" transform="scale(0.015625)"/>
       <path id="SourceSans3-Regular-2" d="M 1299 2349 
L 1101 1709 
L 2362 1709 
L 2163 2349 
Q 2048 2701 1945 3049 
Q 1843 3398 1741 3763 
L 1715 3763 
Q 1619 3398 1516 3049 
Q 1414 2701 1299 2349 
z
M 19 0 
L 1440 4198 
L 2042 4198 
L 3462 0 
L 2893 0 
L 2496 1280 
L 966 1280 
L 563 0 
L 19 0 
z
" transform="scale(0.015625)"/>
       <path id="SourceSans3-Regular-1" transform="scale(0.015625)"/>
       <path id="SourceSans3-Regular-2a" d="M 1734 -77 
Q 1357 -77 1027 115 
Q 698 307 496 672 
Q 294 1037 294 1549 
Q 294 2074 496 2438 
Q 698 2803 1027 2995 
Q 1357 3187 1734 3187 
Q 2118 3187 2444 2995 
Q 2771 2803 2972 2438 
Q 3174 2074 3174 1549 
Q 3174 1037 2972 672 
Q 2771 307 2444 115 
Q 2118 -77 1734 -77 
z
M 1734 358 
Q 2138 358 2384 688 
Q 2630 1018 2630 1549 
Q 2630 2086 2384 2419 
Q 2138 2752 1734 2752 
Q 1338 2752 1088 2419 
Q 838 2086 838 1549 
Q 838 1018 1088 688 
Q 1338 358 1734 358 
z
" transform="scale(0.015625)"/>
       <path id="SourceSans3-Regular-28" d="M 525 0 
L 525 3110 
L 960 3110 
L 1005 2662 
L 1024 2662 
Q 1229 2886 1472 3036 
Q 1715 3187 1990 3187 
Q 2349 3187 2550 3030 
Q 2752 2874 2848 2592 
Q 3091 2854 3340 3020 
Q 3590 3187 3872 3187 
Q 4352 3187 4585 2876 
Q 4819 2566 4819 1971 
L 4819 0 
L 4294 0 
L 4294 1901 
Q 4294 2336 4153 2534 
Q 4013 2733 3718 2733 
Q 3373 2733 2938 2253 
L 2938 0 
L 2413 0 
L 2413 1901 
Q 2413 2336 2272 2534 
Q 2131 2733 1830 2733 
Q 1485 2733 1050 2253 
L 1050 0 
L 525 0 
z
" transform="scale(0.015625)"/>
       <path id="SourceSans3-Regular-2b" d="M 525 -1312 
L 525 3110 
L 960 3110 
L 1005 2752 
L 1024 2752 
Q 1235 2931 1488 3059 
Q 1741 3187 2016 3187 
Q 2618 3187 2931 2755 
Q 3245 2323 3245 1600 
Q 3245 1075 3056 697 
Q 2867 320 2563 121 
Q 2259 -77 1901 -77 
Q 1683 -77 1468 19 
Q 1254 115 1037 282 
L 1050 -262 
L 1050 -1312 
L 525 -1312 
z
M 1811 365 
Q 2195 365 2448 694 
Q 2701 1024 2701 1600 
Q 2701 2112 2512 2429 
Q 2323 2746 1882 2746 
Q 1683 2746 1481 2637 
Q 1280 2528 1050 2323 
L 1050 691 
Q 1261 512 1459 438 
Q 1658 365 1811 365 
z
" transform="scale(0.015625)"/>
       <path id="SourceSans3-Regular-29" d="M 525 0 
L 525 3110 
L 960 3110 
L 1005 2662 
L 1024 2662 
Q 1248 2886 1497 3036 
Q 1747 3187 2067 3187 
Q 2560 3187 2787 2876 
Q 3014 2566 3014 1971 
L 3014 0 
L 2490 0 
L 2490 1901 
Q 2490 2336 2349 2534 
Q 2208 2733 1901 2733 
Q 1664 2733 1475 2611 
Q 1286 2490 1050 2253 
L 1050 0 
L 525 0 
z
" transform="scale(0.015625)"/>
       <path id="SourceSans3-Regular-20" d="M 1702 2758 
Q 1510 2758 1328 2665 
Q 1146 2573 1014 2368 
Q 883 2163 838 1830 
L 2458 1830 
Q 2458 2285 2259 2521 
Q 2061 2758 1702 2758 
z
M 1786 -77 
Q 1370 -77 1027 115 
Q 685 307 486 675 
Q 288 1043 288 1555 
Q 288 2061 489 2425 
Q 691 2790 1014 2988 
Q 1338 3187 1696 3187 
Q 2298 3187 2614 2790 
Q 2931 2394 2931 1728 
Q 2931 1645 2924 1568 
Q 2918 1491 2906 1414 
L 826 1414 
Q 864 890 1161 621 
Q 1459 352 1850 352 
Q 2074 352 2269 416 
Q 2464 480 2624 589 
L 2816 243 
Q 2611 102 2358 12 
Q 2106 -77 1786 -77 
z
" transform="scale(0.015625)"/>
       <path id="SourceSans3-Regular-2f" d="M 1504 -58 
Q 1005 -58 809 227 
Q 614 512 614 979 
L 614 2682 
L 154 2682 
L 154 3078 
L 640 3110 
L 704 4109 
L 1146 4109 
L 1146 3110 
L 1984 3110 
L 1984 2682 
L 1146 2682 
L 1146 966 
Q 1146 685 1251 528 
Q 1357 371 1626 371 
Q 1709 371 1798 387 
Q 1888 403 1978 448 
L 2086 77 
Q 1965 13 1814 -22 
Q 1664 -58 1504 -58 
z
" transform="scale(0.015625)"/>
      </defs>
      <use xlink:href="#SourceSans3-Regular-11"/>
      <use xlink:href="#SourceSans3-Regular-4" transform="translate(56.59375 0)"/>
      <use xlink:href="#SourceSans3-Regular-2" transform="translate(113.6875 0)"/>
      <use xlink:href="#SourceSans3-Regular-1" transform="translate(168.09375 0)"/>
      <use xlink:href="#SourceSans3-Regular-4" transform="translate(188.09375 0)"/>
      <use xlink:href="#SourceSans3-Regular-2a" transform="translate(245.1875 0)"/>
      <use xlink:href="#SourceSans3-Regular-28" transform="translate(299.390625 0)"/>
      <use xlink:href="#SourceSans3-Regular-2b" transform="translate(382.296875 0)"/>
      <use xlink:href="#SourceSans3-Regular-2a" transform="translate(437.796875 0)"/>
      <use xlink:href="#SourceSans3-Regular-29" transform="translate(492 0)"/>
      <use xlink:href="#SourceSans3-Regular-20" transform="translate(546.703125 0)"/>
      <use xlink:href="#SourceSans3-Regular-29" transform="translate(596.296875 0)"/>
      <use xlink:href="#SourceSans3-Regular-2f" transform="translate(651 0)"/>
     </g>
    </g>
   </g>
   <g id="matplotlib.axis_2">
    <g id="ytick_1">
     <g id="line2d_7"/>
     <g id="text_8">
      <!-- 0.000 -->
      <g style="fill: #262626" transform="translate(35.3332 246.378) scale(0.168 -0.168)">
       <defs>
        <path id="SourceSans3-Regular-56b" d="M 800 -77 
Q 640 -77 528 35 
Q 416 147 416 320 
Q 416 506 528 618 
Q 640 730 800 730 
Q 954 730 1066 618 
Q 1178 506 1178 320 
Q 1178 147 1066 35 
Q 954 -77 800 -77 
z
" transform="scale(0.015625)"/>
       </defs>
       <use xlink:href="#SourceSans3-Regular-535"/>
       <use xlink:href="#SourceSans3-Regular-56b" transform="translate(49.703125 0)"/>
       <use xlink:href="#SourceSans3-Regular-535" transform="translate(74.609375 0)"/>
       <use xlink:href="#SourceSans3-Regular-535" transform="translate(124.3125 0)"/>
       <use xlink:href="#SourceSans3-Regular-535" transform="translate(174.015625 0)"/>
      </g>
     </g>
    </g>
    <g id="ytick_2">
     <g id="line2d_8"/>
     <g id="text_9">
      <!-- 0.025 -->
      <g style="fill: #262626" transform="translate(35.3332 204.907711) scale(0.168 -0.168)">
       <defs>
        <path id="SourceSans3-Regular-53a" d="M 1498 -77 
Q 1011 -77 691 96 
Q 371 269 160 480 
L 416 826 
Q 602 646 845 502 
Q 1088 358 1446 358 
Q 1824 358 2083 611 
Q 2342 864 2342 1293 
Q 2342 1715 2105 1952 
Q 1869 2189 1472 2189 
Q 1261 2189 1110 2125 
Q 960 2061 774 1939 
L 493 2118 
L 627 4083 
L 2669 4083 
L 2669 3629 
L 1088 3629 
L 979 2419 
Q 1126 2496 1273 2541 
Q 1421 2586 1606 2586 
Q 1958 2586 2243 2448 
Q 2528 2310 2701 2028 
Q 2874 1747 2874 1306 
Q 2874 864 2678 553 
Q 2483 243 2169 83 
Q 1856 -77 1498 -77 
z
" transform="scale(0.015625)"/>
       </defs>
       <use xlink:href="#SourceSans3-Regular-535"/>
       <use xlink:href="#SourceSans3-Regular-56b" transform="translate(49.703125 0)"/>
       <use xlink:href="#SourceSans3-Regular-535" transform="translate(74.609375 0)"/>
       <use xlink:href="#SourceSans3-Regular-537" transform="translate(124.3125 0)"/>
       <use xlink:href="#SourceSans3-Regular-53a" transform="translate(174.015625 0)"/>
      </g>
     </g>
    </g>
    <g id="ytick_3">
     <g id="line2d_9"/>
     <g id="text_10">
      <!-- 0.050 -->
      <g style="fill: #262626" transform="translate(35.3332 163.437421) scale(0.168 -0.168)">
       <use xlink:href="#SourceSans3-Regular-535"/>
       <use xlink:href="#SourceSans3-Regular-56b" transform="translate(49.703125 0)"/>
       <use xlink:href="#SourceSans3-Regular-535" transform="translate(74.609375 0)"/>
       <use xlink:href="#SourceSans3-Regular-53a" transform="translate(124.3125 0)"/>
       <use xlink:href="#SourceSans3-Regular-535" transform="translate(174.015625 0)"/>
      </g>
     </g>
    </g>
    <g id="ytick_4">
     <g id="line2d_10"/>
     <g id="text_11">
      <!-- 0.075 -->
      <g style="fill: #262626" transform="translate(35.3332 121.967132) scale(0.168 -0.168)">
       <defs>
        <path id="SourceSans3-Regular-53c" d="M 1094 0 
Q 1133 768 1261 1376 
Q 1389 1984 1648 2525 
Q 1907 3066 2323 3629 
L 282 3629 
L 282 4083 
L 2912 4083 
L 2912 3757 
Q 2541 3290 2304 2867 
Q 2067 2445 1932 2009 
Q 1798 1574 1731 1084 
Q 1664 595 1638 0 
L 1094 0 
z
" transform="scale(0.015625)"/>
       </defs>
       <use xlink:href="#SourceSans3-Regular-535"/>
       <use xlink:href="#SourceSans3-Regular-56b" transform="translate(49.703125 0)"/>
       <use xlink:href="#SourceSans3-Regular-535" transform="translate(74.609375 0)"/>
       <use xlink:href="#SourceSans3-Regular-53c" transform="translate(124.3125 0)"/>
       <use xlink:href="#SourceSans3-Regular-53a" transform="translate(174.015625 0)"/>
      </g>
     </g>
    </g>
    <g id="ytick_5">
     <g id="line2d_11"/>
     <g id="text_12">
      <!-- 0.100 -->
      <g style="fill: #262626" transform="translate(35.3332 80.496842) scale(0.168 -0.168)">
       <use xlink:href="#SourceSans3-Regular-535"/>
       <use xlink:href="#SourceSans3-Regular-56b" transform="translate(49.703125 0)"/>
       <use xlink:href="#SourceSans3-Regular-536" transform="translate(74.609375 0)"/>
       <use xlink:href="#SourceSans3-Regular-535" transform="translate(124.3125 0)"/>
       <use xlink:href="#SourceSans3-Regular-535" transform="translate(174.015625 0)"/>
      </g>
     </g>
    </g>
    <g id="text_13">
     <!-- Variance Fraction -->
     <g style="fill: #262626" transform="translate(25.4 212.203084) rotate(-90) scale(0.182 -0.182)">
      <defs>
       <path id="SourceSans3-Regular-17" d="M 1318 0 
L 0 4198 
L 570 4198 
L 1216 1933 
Q 1325 1555 1421 1238 
Q 1517 922 1626 544 
L 1651 544 
Q 1760 922 1849 1238 
Q 1939 1555 2054 1933 
L 2752 4198 
L 3296 4198 
L 1939 0 
L 1318 0 
z
" transform="scale(0.015625)"/>
       <path id="SourceSans3-Regular-1c" d="M 1242 -77 
Q 851 -77 588 153 
Q 326 384 326 806 
Q 326 1331 787 1600 
Q 1248 1869 2246 1978 
Q 2246 2176 2188 2349 
Q 2131 2522 1993 2634 
Q 1856 2746 1600 2746 
Q 1331 2746 1094 2643 
Q 858 2541 672 2426 
L 467 2784 
Q 685 2931 1001 3059 
Q 1318 3187 1690 3187 
Q 2259 3187 2515 2838 
Q 2771 2490 2771 1907 
L 2771 0 
L 2336 0 
L 2291 371 
L 2272 371 
Q 2042 186 1789 54 
Q 1536 -77 1242 -77 
z
M 1389 358 
Q 1613 358 1817 460 
Q 2022 563 2246 762 
L 2246 1600 
Q 1722 1542 1414 1440 
Q 1107 1338 976 1190 
Q 845 1043 845 838 
Q 845 582 1005 470 
Q 1165 358 1389 358 
z
" transform="scale(0.015625)"/>
       <path id="SourceSans3-Regular-2d" d="M 525 0 
L 525 3110 
L 960 3110 
L 1005 2547 
L 1024 2547 
Q 1178 2842 1408 3014 
Q 1638 3187 1907 3187 
Q 2093 3187 2240 3123 
L 2125 2675 
Q 2054 2694 1993 2704 
Q 1933 2714 1837 2714 
Q 1638 2714 1424 2554 
Q 1210 2394 1050 1997 
L 1050 0 
L 525 0 
z
" transform="scale(0.015625)"/>
       <path id="SourceSans3-Regular-24" d="M 525 0 
L 525 3110 
L 1050 3110 
L 1050 0 
L 525 0 
z
M 787 3750 
Q 633 3750 534 3843 
Q 435 3936 435 4096 
Q 435 4250 534 4346 
Q 633 4442 787 4442 
Q 941 4442 1040 4346 
Q 1139 4250 1139 4096 
Q 1139 3936 1040 3843 
Q 941 3750 787 3750 
z
" transform="scale(0.015625)"/>
       <path id="SourceSans3-Regular-1e" d="M 1760 -77 
Q 1344 -77 1011 115 
Q 678 307 486 672 
Q 294 1037 294 1549 
Q 294 2074 502 2438 
Q 710 2803 1052 2995 
Q 1395 3187 1792 3187 
Q 2099 3187 2320 3084 
Q 2541 2982 2701 2822 
L 2438 2502 
Q 2317 2611 2166 2681 
Q 2016 2752 1811 2752 
Q 1536 2752 1315 2601 
Q 1094 2451 966 2179 
Q 838 1907 838 1549 
Q 838 1018 1107 688 
Q 1376 358 1805 358 
Q 2016 358 2201 441 
Q 2387 525 2528 653 
L 2758 333 
Q 2566 147 2313 35 
Q 2061 -77 1760 -77 
z
" transform="scale(0.015625)"/>
       <path id="SourceSans3-Regular-7" d="M 576 0 
L 576 4198 
L 2995 4198 
L 2995 3750 
L 1107 3750 
L 1107 2330 
L 2707 2330 
L 2707 1882 
L 1107 1882 
L 1107 0 
L 576 0 
z
" transform="scale(0.015625)"/>
      </defs>
      <use xlink:href="#SourceSans3-Regular-17"/>
      <use xlink:href="#SourceSans3-Regular-1c" transform="translate(49.296875 0)"/>
      <use xlink:href="#SourceSans3-Regular-2d" transform="translate(99.703125 0)"/>
      <use xlink:href="#SourceSans3-Regular-24" transform="translate(134.40625 0)"/>
      <use xlink:href="#SourceSans3-Regular-1c" transform="translate(159 0)"/>
      <use xlink:href="#SourceSans3-Regular-29" transform="translate(209.40625 0)"/>
      <use xlink:href="#SourceSans3-Regular-1e" transform="translate(264.109375 0)"/>
      <use xlink:href="#SourceSans3-Regular-20" transform="translate(307.609375 0)"/>
      <use xlink:href="#SourceSans3-Regular-1" transform="translate(357.203125 0)"/>
      <use xlink:href="#SourceSans3-Regular-7" transform="translate(377.203125 0)"/>
      <use xlink:href="#SourceSans3-Regular-2d" transform="translate(424.609375 0)"/>
      <use xlink:href="#SourceSans3-Regular-1c" transform="translate(456.90625 0)"/>
      <use xlink:href="#SourceSans3-Regular-1e" transform="translate(507.3125 0)"/>
      <use xlink:href="#SourceSans3-Regular-2f" transform="translate(551.90625 0)"/>
      <use xlink:href="#SourceSans3-Regular-24" transform="translate(585.703125 0)"/>
      <use xlink:href="#SourceSans3-Regular-2a" transform="translate(610.296875 0)"/>
      <use xlink:href="#SourceSans3-Regular-29" transform="translate(664.5 0)"/>
     </g>
    </g>
   </g>
   <g id="line2d_12">
    <path d="M 79.968498 72.119091 
L 83.519046 128.254495 
L 87.069594 161.619157 
L 90.620142 181.03796 
L 94.17069 186.679337 
L 97.721238 188.36971 
L 101.271786 200.629634 
L 104.822334 201.331927 
L 108.372882 206.921404 
L 111.92343 210.093079 
L 115.473978 211.323281 
L 119.024526 213.112306 
L 122.575074 214.09444 
L 126.125622 215.053927 
L 129.67617 218.365147 
L 133.226718 219.487365 
L 136.777266 219.82323 
L 140.327814 221.065673 
L 143.878362 221.567085 
L 147.42891 221.831182 
L 150.979458 222.660301 
L 154.530006 223.237421 
L 158.080554 224.074394 
L 161.631102 224.770515 
L 165.18165 225.056206 
L 168.732198 225.173685 
L 172.282746 225.653006 
L 175.833294 226.150108 
L 179.383842 226.212645 
L 182.93439 227.45822 
L 186.484938 227.646758 
L 190.035486 228.081492 
L 193.586034 228.32456 
L 197.136582 228.480971 
L 200.68713 228.857827 
L 204.237678 228.982132 
L 207.788226 229.142393 
L 211.338774 229.556382 
L 214.889322 229.782208 
L 218.43987 229.881941 
L 221.990418 230.38154 
L 225.540966 230.561115 
L 229.091514 230.933937 
L 232.642062 231.012776 
L 236.19261 231.299466 
L 239.743158 231.339321 
L 243.293706 231.519371 
L 246.844254 231.6962 
L 250.394802 231.766227 
L 253.94535 232.025756 
L 257.495898 232.134277 
L 261.046446 232.25604 
L 264.596994 232.388178 
L 268.147542 232.40892 
L 271.69809 232.738406 
L 275.248638 232.904449 
L 278.799186 233.027618 
L 282.349734 233.042554 
L 285.900282 233.181245 
L 289.45083 233.343492 
L 293.001378 233.438958 
L 296.551926 233.483509 
L 300.102474 233.527894 
L 303.653022 233.699954 
L 307.20357 233.744869 
L 310.754118 233.784975 
L 314.304666 233.915702 
L 317.855214 234.027075 
L 321.405762 234.129772 
L 324.95631 234.184563 
L 328.506858 234.194808 
L 332.057406 234.385472 
L 335.607954 234.404733 
L 339.158502 234.439247 
L 342.70905 234.542241 
L 346.259598 234.572874 
L 349.810146 234.632062 
L 353.360694 234.641208 
L 356.911242 234.692102 
L 360.46179 234.734362 
L 364.012338 234.801081 
L 367.562886 234.847835 
L 371.113434 234.917743 
L 374.663982 234.930937 
L 378.21453 234.992206 
L 381.765078 235.042064 
L 385.315626 235.061169 
L 388.866174 235.118536 
L 392.416722 235.170437 
L 395.96727 235.215839 
L 399.517818 235.258738 
L 403.068366 235.28997 
L 406.618914 235.314362 
L 410.169462 235.374423 
L 413.72001 235.396119 
L 417.270558 235.426864 
L 420.821106 235.463536 
L 424.371654 235.515226 
L 427.922202 235.537515 
L 431.47275 235.576474 
" clip-path="url(#p2a3a5a9b9a)" style="fill: none; stroke: #457b9d; stroke-width: 1.5; stroke-linecap: round"/>
   </g>
   <g id="line2d_13">
    <path d="M 223.34217 237.978 
L 223.34217 55.5332 
" clip-path="url(#p2a3a5a9b9a)" style="fill: none; stroke: #9e9e9e; stroke-width: 1.2; stroke-linecap: round"/>
   </g>
   <g id="patch_3">
    <path d="M 76.41795 237.978 
L 76.41795 55.5332 
" style="fill: none; stroke: #cccccc; stroke-linejoin: miter; stroke-linecap: square"/>
   </g>
   <g id="patch_4">
    <path d="M 431.47275 237.978 
L 431.47275 55.5332 
" style="fill: none; stroke: #cccccc; stroke-linejoin: miter; stroke-linecap: square"/>
   </g>
   <g id="patch_5">
    <path d="M 76.41795 237.978 
L 431.47275 237.978 
" style="fill: none; stroke: #cccccc; stroke-linejoin: miter; stroke-linecap: square"/>
   </g>
   <g id="patch_6">
    <path d="M 76.41795 55.5332 
L 431.47275 55.5332 
" style="fill: none; stroke: #cccccc; stroke-linejoin: miter; stroke-linecap: square"/>
   </g>
   <g id="text_14">
    <!-- Variance Spectrum of the Teacher's PCs -->
    <g style="fill: #262626" transform="translate(100.806569 25.4) scale(0.182 -0.182)">
     <defs>
      <path id="SourceSans3-Semibold-17" d="M 1254 0 
L -26 4186 
L 762 4186 
L 1325 2080 
Q 1421 1722 1507 1402 
Q 1594 1082 1696 723 
L 1722 723 
Q 1824 1082 1904 1402 
Q 1984 1722 2086 2080 
L 2694 4186 
L 3456 4186 
L 2131 0 
L 1254 0 
z
" transform="scale(0.015625)"/>
      <path id="SourceSans3-Semibold-1c" d="M 1229 -77 
Q 819 -77 556 179 
Q 294 435 294 845 
Q 294 1376 739 1648 
Q 1184 1920 2150 2022 
Q 2144 2266 2019 2438 
Q 1894 2611 1574 2611 
Q 1344 2611 1123 2528 
Q 902 2445 691 2317 
L 422 2816 
Q 685 2982 1014 3100 
Q 1344 3219 1715 3219 
Q 2304 3219 2595 2870 
Q 2886 2522 2886 1856 
L 2886 0 
L 2278 0 
L 2227 346 
L 2202 346 
Q 1984 166 1747 44 
Q 1510 -77 1229 -77 
z
M 1459 525 
Q 1651 525 1814 605 
Q 1978 685 2150 845 
L 2150 1510 
Q 1510 1434 1260 1286 
Q 1011 1139 1011 896 
Q 1011 698 1139 611 
Q 1267 525 1459 525 
z
" transform="scale(0.015625)"/>
      <path id="SourceSans3-Semibold-2d" d="M 467 0 
L 467 3142 
L 1075 3142 
L 1126 2586 
L 1152 2586 
Q 1318 2893 1552 3056 
Q 1786 3219 2042 3219 
Q 2266 3219 2400 3155 
L 2253 2528 
Q 2176 2547 2112 2556 
Q 2048 2566 1946 2566 
Q 1760 2566 1555 2422 
Q 1350 2278 1203 1920 
L 1203 0 
L 467 0 
z
" transform="scale(0.015625)"/>
      <path id="SourceSans3-Semibold-24" d="M 467 0 
L 467 3142 
L 1203 3142 
L 1203 0 
L 467 0 
z
M 832 3693 
Q 634 3693 512 3808 
Q 390 3923 390 4115 
Q 390 4301 512 4416 
Q 634 4531 832 4531 
Q 1030 4531 1152 4416 
Q 1274 4301 1274 4115 
Q 1274 3923 1152 3808 
Q 1030 3693 832 3693 
z
" transform="scale(0.015625)"/>
      <path id="SourceSans3-Semibold-29" d="M 467 0 
L 467 3142 
L 1075 3142 
L 1126 2720 
L 1152 2720 
Q 1363 2925 1612 3072 
Q 1862 3219 2182 3219 
Q 2688 3219 2918 2892 
Q 3149 2566 3149 1971 
L 3149 0 
L 2413 0 
L 2413 1875 
Q 2413 2266 2297 2426 
Q 2182 2586 1920 2586 
Q 1715 2586 1558 2486 
Q 1402 2387 1203 2195 
L 1203 0 
L 467 0 
z
" transform="scale(0.015625)"/>
      <path id="SourceSans3-Semibold-1e" d="M 1792 -77 
Q 1357 -77 1011 118 
Q 666 314 464 682 
Q 262 1050 262 1568 
Q 262 2093 480 2461 
Q 698 2829 1059 3024 
Q 1421 3219 1837 3219 
Q 2138 3219 2365 3123 
Q 2592 3027 2758 2867 
L 2406 2413 
Q 2304 2502 2173 2560 
Q 2042 2618 1875 2618 
Q 1504 2618 1261 2330 
Q 1018 2042 1018 1568 
Q 1018 1101 1254 813 
Q 1491 525 1862 525 
Q 2048 525 2211 592 
Q 2374 659 2502 774 
L 2803 320 
Q 2605 141 2345 32 
Q 2086 -77 1792 -77 
z
" transform="scale(0.015625)"/>
      <path id="SourceSans3-Semibold-20" d="M 1728 2637 
Q 1498 2637 1290 2480 
Q 1082 2323 1011 1907 
L 2355 1907 
Q 2355 2246 2201 2441 
Q 2048 2637 1728 2637 
z
M 1818 -77 
Q 1376 -77 1021 118 
Q 666 314 461 682 
Q 256 1050 256 1574 
Q 256 2086 467 2454 
Q 678 2822 1011 3020 
Q 1344 3219 1715 3219 
Q 2144 3219 2432 3027 
Q 2720 2835 2864 2499 
Q 3008 2163 3008 1728 
Q 3008 1517 2970 1344 
L 998 1344 
Q 1062 915 1321 713 
Q 1581 512 1907 512 
Q 2298 512 2637 730 
L 2893 256 
Q 2675 102 2396 12 
Q 2118 -77 1818 -77 
z
" transform="scale(0.015625)"/>
      <path id="SourceSans3-Semibold-1" transform="scale(0.015625)"/>
      <path id="SourceSans3-Semibold-14" d="M 1754 -77 
Q 858 -77 243 538 
L 646 1024 
Q 870 806 1168 688 
Q 1466 570 1766 570 
Q 2125 570 2310 717 
Q 2496 864 2496 1107 
Q 2496 1370 2313 1485 
Q 2131 1600 1850 1722 
L 1274 1971 
Q 1069 2061 873 2205 
Q 678 2349 553 2566 
Q 429 2784 429 3085 
Q 429 3418 608 3683 
Q 787 3949 1107 4105 
Q 1427 4262 1837 4262 
Q 2214 4262 2550 4121 
Q 2886 3981 3123 3750 
L 2733 3264 
Q 2534 3430 2307 3523 
Q 2080 3616 1837 3616 
Q 1542 3616 1360 3485 
Q 1178 3354 1178 3123 
Q 1178 2963 1270 2857 
Q 1363 2752 1516 2678 
Q 1670 2605 1843 2534 
L 2413 2298 
Q 2790 2138 3024 1878 
Q 3258 1619 3258 1165 
Q 3258 826 3078 544 
Q 2899 262 2563 92 
Q 2227 -77 1754 -77 
z
" transform="scale(0.015625)"/>
      <path id="SourceSans3-Semibold-2b" d="M 467 -1242 
L 467 3142 
L 1075 3142 
L 1126 2810 
L 1152 2810 
Q 1350 2976 1596 3097 
Q 1843 3219 2099 3219 
Q 2688 3219 3011 2784 
Q 3334 2349 3334 1619 
Q 3334 1082 3142 701 
Q 2950 320 2646 121 
Q 2342 -77 1990 -77 
Q 1786 -77 1581 16 
Q 1376 109 1184 269 
L 1203 -256 
L 1203 -1242 
L 467 -1242 
z
M 1837 531 
Q 2150 531 2361 806 
Q 2573 1082 2573 1613 
Q 2573 2086 2413 2348 
Q 2253 2611 1894 2611 
Q 1562 2611 1203 2259 
L 1203 794 
Q 1376 653 1536 592 
Q 1696 531 1837 531 
z
" transform="scale(0.015625)"/>
      <path id="SourceSans3-Semibold-2f" d="M 1574 -64 
Q 1030 -64 803 249 
Q 576 563 576 1069 
L 576 2560 
L 128 2560 
L 128 3110 
L 614 3142 
L 704 4128 
L 1318 4128 
L 1318 3142 
L 2118 3142 
L 2118 2560 
L 1318 2560 
L 1318 1069 
Q 1318 518 1760 518 
Q 1939 518 2086 582 
L 2221 64 
Q 2099 13 1932 -25 
Q 1766 -64 1574 -64 
z
" transform="scale(0.015625)"/>
      <path id="SourceSans3-Semibold-30" d="M 1402 -77 
Q 896 -77 665 249 
Q 435 576 435 1171 
L 435 3142 
L 1171 3142 
L 1171 1267 
Q 1171 877 1286 717 
Q 1402 557 1658 557 
Q 1862 557 2019 659 
Q 2176 762 2355 992 
L 2355 3142 
L 3091 3142 
L 3091 0 
L 2490 0 
L 2432 461 
L 2413 461 
Q 2208 218 1965 70 
Q 1722 -77 1402 -77 
z
" transform="scale(0.015625)"/>
      <path id="SourceSans3-Semibold-28" d="M 467 0 
L 467 3142 
L 1075 3142 
L 1126 2714 
L 1152 2714 
Q 1350 2925 1584 3072 
Q 1818 3219 2112 3219 
Q 2458 3219 2666 3068 
Q 2874 2918 2982 2656 
Q 3206 2899 3452 3059 
Q 3699 3219 3994 3219 
Q 4493 3219 4729 2892 
Q 4966 2566 4966 1971 
L 4966 0 
L 4224 0 
L 4224 1875 
Q 4224 2266 4105 2426 
Q 3987 2586 3744 2586 
Q 3450 2586 3085 2195 
L 3085 0 
L 2349 0 
L 2349 1875 
Q 2349 2266 2230 2426 
Q 2112 2586 1862 2586 
Q 1568 2586 1203 2195 
L 1203 0 
L 467 0 
z
" transform="scale(0.015625)"/>
      <path id="SourceSans3-Semibold-2a" d="M 1754 -77 
Q 1363 -77 1024 118 
Q 685 314 473 682 
Q 262 1050 262 1568 
Q 262 2093 473 2461 
Q 685 2829 1024 3024 
Q 1363 3219 1754 3219 
Q 2150 3219 2489 3024 
Q 2829 2829 3040 2461 
Q 3251 2093 3251 1568 
Q 3251 1050 3040 682 
Q 2829 314 2489 118 
Q 2150 -77 1754 -77 
z
M 1754 525 
Q 2099 525 2297 813 
Q 2496 1101 2496 1568 
Q 2496 2042 2297 2330 
Q 2099 2618 1754 2618 
Q 1408 2618 1213 2330 
Q 1018 2042 1018 1568 
Q 1018 1101 1213 813 
Q 1408 525 1754 525 
z
" transform="scale(0.015625)"/>
      <path id="SourceSans3-Semibold-21" d="M 595 0 
L 595 2560 
L 128 2560 
L 128 3110 
L 595 3142 
L 595 3469 
Q 595 3962 838 4278 
Q 1082 4595 1638 4595 
Q 1805 4595 1958 4563 
Q 2112 4531 2214 4486 
L 2061 3955 
Q 1888 4013 1728 4013 
Q 1331 4013 1331 3482 
L 1331 3142 
L 1946 3142 
L 1946 2560 
L 1331 2560 
L 1331 0 
L 595 0 
z
" transform="scale(0.015625)"/>
      <path id="SourceSans3-Semibold-23" d="M 467 0 
L 467 4518 
L 1203 4518 
L 1203 3354 
L 1178 2746 
Q 1376 2931 1619 3075 
Q 1862 3219 2182 3219 
Q 2688 3219 2918 2892 
Q 3149 2566 3149 1971 
L 3149 0 
L 2413 0 
L 2413 1875 
Q 2413 2266 2297 2426 
Q 2182 2586 1920 2586 
Q 1715 2586 1558 2486 
Q 1402 2387 1203 2195 
L 1203 0 
L 467 0 
z
" transform="scale(0.015625)"/>
      <path id="SourceSans3-Semibold-15" d="M 1376 0 
L 1376 3558 
L 166 3558 
L 166 4186 
L 3328 4186 
L 3328 3558 
L 2118 3558 
L 2118 0 
L 1376 0 
z
" transform="scale(0.015625)"/>
      <path id="SourceSans3-Semibold-574" d="M 666 2509 
L 525 3680 
L 499 4403 
L 1254 4403 
L 1235 3680 
L 1088 2509 
L 666 2509 
z
" transform="scale(0.015625)"/>
      <path id="SourceSans3-Semibold-2e" d="M 1344 -77 
Q 1018 -77 701 44 
Q 384 166 154 384 
L 480 806 
Q 685 634 905 557 
Q 1126 480 1370 480 
Q 1626 480 1747 589 
Q 1869 698 1869 858 
Q 1869 1056 1670 1158 
Q 1472 1261 1210 1357 
Q 986 1440 784 1558 
Q 582 1677 457 1853 
Q 333 2029 333 2278 
Q 333 2694 640 2956 
Q 947 3219 1472 3219 
Q 1792 3219 2061 3113 
Q 2330 3008 2522 2842 
L 2195 2426 
Q 1862 2662 1491 2662 
Q 1254 2662 1139 2563 
Q 1024 2464 1024 2317 
Q 1024 2144 1190 2051 
Q 1357 1958 1651 1856 
Q 1894 1773 2102 1654 
Q 2310 1536 2438 1353 
Q 2566 1171 2566 896 
Q 2566 493 2252 208 
Q 1939 -77 1344 -77 
z
" transform="scale(0.015625)"/>
      <path id="SourceSans3-Semibold-11" d="M 531 0 
L 531 4186 
L 1850 4186 
Q 2317 4186 2681 4064 
Q 3046 3942 3257 3660 
Q 3469 3379 3469 2893 
Q 3469 2432 3257 2131 
Q 3046 1830 2688 1683 
Q 2330 1536 1875 1536 
L 1274 1536 
L 1274 0 
L 531 0 
z
M 1274 2131 
L 1818 2131 
Q 2739 2131 2739 2893 
Q 2739 3290 2499 3440 
Q 2259 3590 1792 3590 
L 1274 3590 
L 1274 2131 
z
" transform="scale(0.015625)"/>
      <path id="SourceSans3-Semibold-4" d="M 2214 -77 
Q 1683 -77 1251 172 
Q 819 422 566 905 
Q 314 1389 314 2080 
Q 314 2765 573 3254 
Q 832 3744 1267 4003 
Q 1702 4262 2227 4262 
Q 2624 4262 2931 4108 
Q 3238 3955 3437 3731 
L 3040 3283 
Q 2880 3443 2685 3529 
Q 2490 3616 2246 3616 
Q 1914 3616 1648 3430 
Q 1382 3245 1228 2905 
Q 1075 2566 1075 2099 
Q 1075 1382 1398 976 
Q 1722 570 2266 570 
Q 2534 570 2748 675 
Q 2963 781 3130 960 
L 3507 525 
Q 3251 230 2931 76 
Q 2611 -77 2214 -77 
z
" transform="scale(0.015625)"/>
     </defs>
     <use xlink:href="#SourceSans3-Semibold-17"/>
     <use xlink:href="#SourceSans3-Semibold-1c" transform="translate(50.6875 0)"/>
     <use xlink:href="#SourceSans3-Semibold-2d" transform="translate(102.28125 0)"/>
     <use xlink:href="#SourceSans3-Semibold-24" transform="translate(139.578125 0)"/>
     <use xlink:href="#SourceSans3-Semibold-1c" transform="translate(165.78125 0)"/>
     <use xlink:href="#SourceSans3-Semibold-29" transform="translate(217.375 0)"/>
     <use xlink:href="#SourceSans3-Semibold-1e" transform="translate(273.375 0)"/>
     <use xlink:href="#SourceSans3-Semibold-20" transform="translate(317.171875 0)"/>
     <use xlink:href="#SourceSans3-Semibold-1" transform="translate(367.875 0)"/>
     <use xlink:href="#SourceSans3-Semibold-14" transform="translate(387.875 0)"/>
     <use xlink:href="#SourceSans3-Semibold-2b" transform="translate(442.375 0)"/>
     <use xlink:href="#SourceSans3-Semibold-20" transform="translate(498.78125 0)"/>
     <use xlink:href="#SourceSans3-Semibold-1e" transform="translate(549.484375 0)"/>
     <use xlink:href="#SourceSans3-Semibold-2f" transform="translate(594.6875 0)"/>
     <use xlink:href="#SourceSans3-Semibold-2d" transform="translate(630.78125 0)"/>
     <use xlink:href="#SourceSans3-Semibold-30" transform="translate(668.078125 0)"/>
     <use xlink:href="#SourceSans3-Semibold-28" transform="translate(723.671875 0)"/>
     <use xlink:href="#SourceSans3-Semibold-1" transform="translate(807.96875 0)"/>
     <use xlink:href="#SourceSans3-Semibold-2a" transform="translate(827.96875 0)"/>
     <use xlink:href="#SourceSans3-Semibold-21" transform="translate(882.46875 0)"/>
     <use xlink:href="#SourceSans3-Semibold-1" transform="translate(914.171875 0)"/>
     <use xlink:href="#SourceSans3-Semibold-2f" transform="translate(934.171875 0)"/>
     <use xlink:href="#SourceSans3-Semibold-23" transform="translate(970.265625 0)"/>
     <use xlink:href="#SourceSans3-Semibold-20" transform="translate(1026.0625 0)"/>
     <use xlink:href="#SourceSans3-Semibold-1" transform="translate(1076.765625 0)"/>
     <use xlink:href="#SourceSans3-Semibold-15" transform="translate(1096.765625 0)"/>
     <use xlink:href="#SourceSans3-Semibold-20" transform="translate(1144.265625 0)"/>
     <use xlink:href="#SourceSans3-Semibold-1c" transform="translate(1193.765625 0)"/>
     <use xlink:href="#SourceSans3-Semibold-1e" transform="translate(1245.359375 0)"/>
     <use xlink:href="#SourceSans3-Semibold-23" transform="translate(1291.5625 0)"/>
     <use xlink:href="#SourceSans3-Semibold-20" transform="translate(1347.359375 0)"/>
     <use xlink:href="#SourceSans3-Semibold-2d" transform="translate(1398.0625 0)"/>
     <use xlink:href="#SourceSans3-Semibold-574" transform="translate(1435.359375 0)"/>
     <use xlink:href="#SourceSans3-Semibold-2e" transform="translate(1460.859375 0)"/>
     <use xlink:href="#SourceSans3-Semibold-1" transform="translate(1503.953125 0)"/>
     <use xlink:href="#SourceSans3-Semibold-11" transform="translate(1523.953125 0)"/>
     <use xlink:href="#SourceSans3-Semibold-4" transform="translate(1582.15625 0)"/>
     <use xlink:href="#SourceSans3-Semibold-2e" transform="translate(1639.75 0)"/>
    </g>
    <!-- (50 Trials x 13 s) -->
    <g style="fill: #262626" transform="translate(192.369631 49.5332) scale(0.182 -0.182)">
     <defs>
      <path id="SourceSans3-Semibold-5a2" d="M 1338 -1139 
Q 941 -486 717 224 
Q 493 934 493 1779 
Q 493 2624 717 3334 
Q 941 4045 1338 4698 
L 1798 4493 
Q 1440 3878 1267 3180 
Q 1094 2483 1094 1779 
Q 1094 1075 1267 377 
Q 1440 -320 1798 -934 
L 1338 -1139 
z
" transform="scale(0.015625)"/>
      <path id="SourceSans3-Semibold-53a" d="M 1542 -77 
Q 1050 -77 714 92 
Q 378 262 154 486 
L 493 960 
Q 678 787 908 656 
Q 1139 525 1446 525 
Q 1786 525 2010 729 
Q 2234 934 2234 1306 
Q 2234 1670 2029 1868 
Q 1824 2067 1485 2067 
Q 1286 2067 1152 2012 
Q 1018 1958 832 1837 
L 480 2061 
L 602 4070 
L 2778 4070 
L 2778 3450 
L 1242 3450 
L 1158 2464 
Q 1286 2528 1411 2563 
Q 1536 2598 1696 2598 
Q 2048 2598 2336 2464 
Q 2624 2330 2800 2048 
Q 2976 1766 2976 1325 
Q 2976 883 2774 569 
Q 2573 256 2246 89 
Q 1920 -77 1542 -77 
z
" transform="scale(0.015625)"/>
      <path id="SourceSans3-Semibold-535" d="M 1638 -77 
Q 1005 -77 630 473 
Q 256 1024 256 2054 
Q 256 3085 630 3616 
Q 1005 4147 1638 4147 
Q 2272 4147 2646 3616 
Q 3021 3085 3021 2054 
Q 3021 1024 2646 473 
Q 2272 -77 1638 -77 
z
M 1638 499 
Q 1837 499 1990 649 
Q 2144 800 2230 1139 
Q 2317 1478 2317 2054 
Q 2317 2630 2230 2963 
Q 2144 3296 1990 3433 
Q 1837 3571 1638 3571 
Q 1446 3571 1292 3433 
Q 1139 3296 1049 2963 
Q 960 2630 960 2054 
Q 960 1478 1049 1139 
Q 1139 800 1292 649 
Q 1446 499 1638 499 
z
" transform="scale(0.015625)"/>
      <path id="SourceSans3-Semibold-27" d="M 1184 -64 
Q 794 -64 630 173 
Q 467 410 467 819 
L 467 4518 
L 1203 4518 
L 1203 781 
Q 1203 640 1254 589 
Q 1306 538 1370 538 
Q 1395 538 1417 541 
Q 1440 544 1478 550 
L 1574 0 
Q 1510 -26 1411 -45 
Q 1312 -64 1184 -64 
z
" transform="scale(0.015625)"/>
      <path id="SourceSans3-Semibold-33" d="M 90 0 
L 1088 1638 
L 154 3142 
L 947 3142 
L 1299 2547 
Q 1370 2419 1443 2281 
Q 1517 2144 1587 2016 
L 1613 2016 
Q 1670 2144 1734 2281 
Q 1798 2419 1856 2547 
L 2157 3142 
L 2918 3142 
L 1990 1555 
L 2989 0 
L 2195 0 
L 1811 621 
Q 1734 762 1654 902 
Q 1574 1043 1491 1178 
L 1466 1178 
Q 1402 1043 1331 905 
Q 1261 768 1190 621 
L 858 0 
L 90 0 
z
" transform="scale(0.015625)"/>
      <path id="SourceSans3-Semibold-536" d="M 474 0 
L 474 602 
L 1382 602 
L 1382 3277 
L 634 3277 
L 634 3738 
Q 934 3795 1158 3875 
Q 1382 3955 1574 4070 
L 2125 4070 
L 2125 602 
L 2925 602 
L 2925 0 
L 474 0 
z
" transform="scale(0.015625)"/>
      <path id="SourceSans3-Semibold-538" d="M 1536 -77 
Q 1043 -77 707 92 
Q 371 262 154 499 
L 506 973 
Q 691 787 928 656 
Q 1165 525 1472 525 
Q 1805 525 2013 688 
Q 2221 851 2221 1139 
Q 2221 1350 2115 1507 
Q 2010 1664 1750 1747 
Q 1491 1830 1024 1830 
L 1024 2368 
Q 1626 2368 1856 2553 
Q 2086 2739 2086 3021 
Q 2086 3277 1926 3421 
Q 1766 3565 1485 3565 
Q 1248 3565 1049 3459 
Q 851 3354 666 3181 
L 288 3635 
Q 550 3866 848 4006 
Q 1146 4147 1510 4147 
Q 2099 4147 2464 3868 
Q 2829 3590 2829 3072 
Q 2829 2733 2640 2499 
Q 2451 2266 2118 2138 
L 2118 2112 
Q 2477 2016 2720 1760 
Q 2963 1504 2963 1101 
Q 2963 730 2768 467 
Q 2573 205 2249 64 
Q 1926 -77 1536 -77 
z
" transform="scale(0.015625)"/>
      <path id="SourceSans3-Semibold-5a3" d="M 736 -1139 
L 275 -934 
Q 634 -320 806 377 
Q 979 1075 979 1779 
Q 979 2483 806 3180 
Q 634 3878 275 4493 
L 736 4698 
Q 1133 4045 1357 3334 
Q 1581 2624 1581 1779 
Q 1581 934 1357 224 
Q 1133 -486 736 -1139 
z
" transform="scale(0.015625)"/>
     </defs>
     <use xlink:href="#SourceSans3-Semibold-5a2"/>
     <use xlink:href="#SourceSans3-Semibold-53a" transform="translate(32.40625 0)"/>
     <use xlink:href="#SourceSans3-Semibold-535" transform="translate(83.703125 0)"/>
     <use xlink:href="#SourceSans3-Semibold-1" transform="translate(135 0)"/>
     <use xlink:href="#SourceSans3-Semibold-15" transform="translate(155 0)"/>
     <use xlink:href="#SourceSans3-Semibold-2d" transform="translate(205.1875 0)"/>
     <use xlink:href="#SourceSans3-Semibold-24" transform="translate(242.484375 0)"/>
     <use xlink:href="#SourceSans3-Semibold-1c" transform="translate(268.6875 0)"/>
     <use xlink:href="#SourceSans3-Semibold-27" transform="translate(320.28125 0)"/>
     <use xlink:href="#SourceSans3-Semibold-2e" transform="translate(347.375 0)"/>
     <use xlink:href="#SourceSans3-Semibold-1" transform="translate(390.46875 0)"/>
     <use xlink:href="#SourceSans3-Semibold-33" transform="translate(410.46875 0)"/>
     <use xlink:href="#SourceSans3-Semibold-1" transform="translate(458.5625 0)"/>
     <use xlink:href="#SourceSans3-Semibold-536" transform="translate(478.5625 0)"/>
     <use xlink:href="#SourceSans3-Semibold-538" transform="translate(529.859375 0)"/>
     <use xlink:href="#SourceSans3-Semibold-1" transform="translate(581.15625 0)"/>
     <use xlink:href="#SourceSans3-Semibold-2e" transform="translate(601.15625 0)"/>
     <use xlink:href="#SourceSans3-Semibold-5a3" transform="translate(644.25 0)"/>
    </g>
   </g>
   <g id="legend_1">
    <g id="patch_7">
     <path d="M 302.58 99.65 
L 419.71275 99.65 
Q 423.07275 99.65 423.07275 96.29 
L 423.07275 67.2932 
Q 423.07275 63.9332 419.71275 63.9332 
L 302.58 63.9332 
Q 299.22 63.9332 299.22 67.2932 
L 299.22 96.29 
Q 299.22 99.65 302.58 99.65 
z
" style="fill: #ffffff; opacity: 0.8; stroke: #cccccc; stroke-linejoin: miter"/>
    </g>
    <g id="line2d_14">
     <path d="M 305.94 81.5732 
L 322.74 81.5732 
L 339.54 81.5732 
" style="fill: none; stroke: #9e9e9e; stroke-width: 1.2; stroke-linecap: round"/>
    </g>
    <g id="text_15">
     <!-- PR = 41.4 -->
     <g style="fill: #262626" transform="translate(352.98 87.4532) scale(0.168 -0.168)">
      <defs>
       <path id="SourceSans3-Regular-13" d="M 576 0 
L 576 4198 
L 1888 4198 
Q 2317 4198 2649 4086 
Q 2982 3974 3171 3715 
Q 3360 3456 3360 3021 
Q 3360 2534 3104 2236 
Q 2848 1939 2413 1830 
L 3482 0 
L 2880 0 
L 1869 1773 
L 1107 1773 
L 1107 0 
L 576 0 
z
M 1107 2208 
L 1811 2208 
Q 2304 2208 2566 2409 
Q 2829 2611 2829 3021 
Q 2829 3437 2566 3603 
Q 2304 3770 1811 3770 
L 1107 3770 
L 1107 2208 
z
" transform="scale(0.015625)"/>
       <path id="SourceSans3-Regular-877" d="M 218 2599 
L 218 2995 
L 2963 2995 
L 2963 2599 
L 218 2599 
z
M 218 1229 
L 218 1625 
L 2963 1625 
L 2963 1229 
L 218 1229 
z
" transform="scale(0.015625)"/>
      </defs>
      <use xlink:href="#SourceSans3-Regular-11"/>
      <use xlink:href="#SourceSans3-Regular-13" transform="translate(56.59375 0)"/>
      <use xlink:href="#SourceSans3-Regular-1" transform="translate(113.5 0)"/>
      <use xlink:href="#SourceSans3-Regular-877" transform="translate(133.5 0)"/>
      <use xlink:href="#SourceSans3-Regular-1" transform="translate(183.203125 0)"/>
      <use xlink:href="#SourceSans3-Regular-539" transform="translate(203.203125 0)"/>
      <use xlink:href="#SourceSans3-Regular-536" transform="translate(252.90625 0)"/>
      <use xlink:href="#SourceSans3-Regular-56b" transform="translate(302.609375 0)"/>
      <use xlink:href="#SourceSans3-Regular-539" transform="translate(327.515625 0)"/>
     </g>
    </g>
   </g>
  </g>
 </g>
 <defs>
  <clipPath id="p2a3a5a9b9a">
   <rect x="76.41795" y="55.5332" width="355.0548" height="182.4448"/>
  </clipPath>
 </defs>
</svg>
